<svg width="118" height="51" viewBox="0 0 118 51" fill="none" xmlns="http://www.w3.org/2000/svg">
<g clip-path="url(#clip0_2136_4955)">
<path d="M52.9816 42.7767V15.9876C52.9816 13.9466 53.4919 12.3307 54.5975 11.3102C55.7031 10.2046 57.2339 9.69434 59.2749 9.69434H78.495C79.8557 9.69434 81.0464 10.2046 81.9818 11.1401C82.9173 12.0756 83.4276 13.2662 83.4276 14.6269C83.4276 15.9876 82.9173 17.0932 81.9818 18.1138C81.0464 19.1343 79.8557 19.5595 78.495 19.5595H64.8879V24.1519H78.0698C79.4305 24.1519 80.6211 24.6622 81.5566 25.5977C82.4921 26.5332 83.0024 27.7238 83.0024 29.0845C83.0024 30.4452 82.4921 31.5508 81.5566 32.5713C80.6211 33.5919 79.4305 34.0171 78.0698 34.0171H64.8879V39.0347H78.495C79.8557 39.0347 81.0464 39.545 81.9818 40.4805C82.9173 41.416 83.4276 42.6066 83.4276 43.9673C83.4276 45.328 82.9173 46.4336 81.9818 47.4542C81.0464 48.4747 79.8557 48.8999 78.495 48.8999H59.2749C57.2339 48.8999 55.618 48.3896 54.5975 47.2841C53.4919 46.4336 52.9816 44.9028 52.9816 42.7767Z" fill="white"/>
<path d="M117.275 14.4568V44.4776C117.275 46.0935 116.765 47.3691 115.745 48.4747C114.724 49.5803 113.448 50.0905 111.918 50.0905C110.727 50.0905 109.621 49.7504 108.686 48.985C107.665 48.2196 106.985 47.2841 106.645 46.1785C104.434 48.6448 101.797 49.9205 98.5656 49.9205C94.9086 49.9205 91.9321 48.5597 89.5508 45.9234C87.1696 43.2019 85.979 39.545 85.979 34.9526C85.979 30.4452 87.1696 26.7883 89.5508 24.0669C91.9321 21.3455 94.9086 19.9848 98.5656 19.9848C101.882 19.9848 104.519 21.2604 106.645 23.7267V14.4568C106.645 13.0111 107.155 11.7354 108.176 10.7149C109.196 9.69435 110.472 9.18408 111.918 9.18408C113.363 9.18408 114.639 9.69435 115.66 10.7149C116.765 11.7354 117.275 13.0111 117.275 14.4568ZM106.645 38.5245V31.2106C105.624 29.935 104.179 29.3397 102.222 29.3397C100.692 29.3397 99.416 29.8499 98.3955 30.8705C97.3749 31.891 96.8647 33.2517 96.8647 34.8676C96.8647 36.5685 97.3749 37.9292 98.3955 38.9497C99.416 39.9702 100.692 40.4805 102.222 40.4805C102.988 40.4805 103.838 40.3104 104.689 39.8852C105.539 39.545 106.135 39.0347 106.645 38.5245Z" fill="white"/>
<path d="M47.8791 27.8089V43.7973C47.8791 45.243 47.3689 46.5187 46.3483 47.5392C45.3278 48.5598 44.0521 49.07 42.6064 49.07C41.1606 49.07 39.8849 48.5598 38.8644 47.5392C37.8439 46.5187 37.3336 45.243 37.3336 43.7973V31.891C37.3336 30.8705 37.0785 30.1051 36.4831 29.5948C35.9729 28.9995 35.1224 28.7444 34.0168 28.7444C32.401 28.7444 30.9552 29.5098 29.6796 30.9555V43.8823C29.6796 45.3281 29.1693 46.6037 28.1488 47.6243C27.1282 48.6448 25.8526 49.1551 24.4068 49.1551C22.9611 49.1551 21.6854 48.6448 20.6648 47.6243C19.6443 46.6037 19.134 45.3281 19.134 43.8823V31.9761C19.134 29.8499 18.0285 28.7444 15.9023 28.7444C14.3715 28.7444 12.9258 29.5098 11.5651 30.9555V43.8823C11.5651 45.3281 11.0548 46.6037 10.0343 47.6243C9.01373 48.6448 7.73806 49.1551 6.2923 49.1551C4.84655 49.1551 3.57088 48.6448 2.55034 47.6243C1.27467 46.5187 0.764404 45.243 0.764404 43.7973V24.7473C0.764404 23.2165 1.27467 21.9408 2.29521 20.8352C3.31574 19.7296 4.59141 19.2194 6.12222 19.2194C7.39788 19.2194 8.50347 19.6446 9.524 20.41C10.5445 21.1754 11.1398 22.1959 11.48 23.3015C12.3305 22.281 13.6061 21.3455 15.3921 20.5801C17.178 19.8147 19.049 19.3894 21.005 19.3894C25.2573 19.3894 27.9787 21.0903 29.2544 24.4071C30.1898 22.9613 31.5506 21.7707 33.4215 20.8352C35.2075 19.8997 37.1635 19.3894 39.2896 19.3894C42.011 19.3894 44.2222 20.1549 45.753 21.6006C47.1137 22.9613 47.8791 25.0874 47.8791 27.8089Z" fill="white"/>
<path d="M25.2573 16.2427C23.7265 16.2427 22.3658 15.2222 21.9405 13.6913C21.0901 10.1195 17.8584 7.65318 14.2015 7.65318C12.3305 7.65318 10.7997 6.12238 10.7997 4.25139C10.7997 2.38041 12.3305 0.849609 14.2015 0.849609C21.005 0.849609 26.9582 5.44202 28.574 12.0755C28.9992 13.8614 27.8937 15.7324 26.1077 16.1576C25.7675 16.2427 25.5124 16.2427 25.2573 16.2427Z" fill="url(#paint0_linear_2136_4955)"/>
<path d="M25.2572 16.2426C25.0021 16.2426 24.747 16.2426 24.4068 16.1576C22.6209 15.7324 21.4302 13.8614 21.9405 12.0755C23.5563 5.35694 29.5095 0.764526 36.313 0.764526C38.184 0.764526 39.7148 2.29533 39.7148 4.16631C39.7148 6.03729 38.184 7.5681 36.313 7.5681C32.6561 7.5681 29.4244 10.0344 28.574 13.6063C28.1488 15.2221 26.788 16.2426 25.2572 16.2426Z" fill="url(#paint1_linear_2136_4955)"/>
</g>
<defs>
<linearGradient id="paint0_linear_2136_4955" x1="19.7324" y1="0.849609" x2="19.7324" y2="16.2427" gradientUnits="userSpaceOnUse">
<stop stop-color="#6CEDD7"/>
<stop offset="1" stop-color="#20D1B4"/>
</linearGradient>
<linearGradient id="paint1_linear_2136_4955" x1="30.7682" y1="0.764526" x2="30.7682" y2="16.2426" gradientUnits="userSpaceOnUse">
<stop stop-color="#6CEDD7"/>
<stop offset="1" stop-color="#20D1B4"/>
</linearGradient>
<clipPath id="clip0_2136_4955">
<rect width="116.511" height="49.2408" fill="white" transform="translate(0.764397 0.764404)"/>
</clipPath>
</defs>
</svg>
