<svg width="35" height="35" viewBox="0 0 35 35" fill="none" xmlns="http://www.w3.org/2000/svg">
<circle cx="17.5" cy="17.5" r="16" fill="#B5B5B5" stroke="#B5B5B5" stroke-width="3"/>
<path fill-rule="evenodd" clip-rule="evenodd" d="M16 9C12.134 9 9 12.134 9 16C9 19.866 12.134 23 16 23C17.5723 23 19.0236 22.4816 20.1922 21.6064L24.293 25.7072C24.6835 26.0977 25.3167 26.0977 25.7072 25.7072C26.0977 25.3167 26.0977 24.6835 25.7072 24.293L21.6064 20.1922C22.4816 19.0236 23 17.5723 23 16C23 12.134 19.866 9 16 9ZM11 16C11 13.2386 13.2386 11 16 11C18.7614 11 21 13.2386 21 16C21 18.7614 18.7614 21 16 21C13.2386 21 11 18.7614 11 16Z" fill="white"/>
<path d="M6 6V3H3V6H6ZM30 6H33V3H30V6ZM30 30V33H33V30H30ZM6 30H3V33H6V30ZM6 9H30V3H6V9ZM27 6V30H33V6H27ZM30 27H6V33H30V27ZM9 30V6H3V30H9Z" fill="#B5B5B5"/>
</svg>
