<svg width="39" height="39" viewBox="0 0 39 39" fill="none" xmlns="http://www.w3.org/2000/svg">
<rect width="39" height="39" rx="12" fill="#98F6B0"/>
<path fill-rule="evenodd" clip-rule="evenodd" d="M14.5513 4.87085C14.4678 4.91215 14.4717 4.93112 14.5723 4.97277C14.6185 4.99188 14.6563 5.01568 14.6563 5.02555C14.6563 5.03542 14.7067 5.07469 14.7683 5.11277C14.8299 5.15085 14.8803 5.19159 14.8803 5.20335C14.8803 5.21511 14.8932 5.22477 14.909 5.22477C14.9248 5.22477 14.9925 5.27832 15.0594 5.34377C15.1264 5.40922 15.3039 5.55727 15.454 5.67277C15.604 5.78827 15.7536 5.90797 15.7865 5.93884C15.8194 5.96971 15.903 6.0388 15.9723 6.09242C16.0416 6.14611 16.1121 6.20274 16.1291 6.21835C16.1461 6.23396 16.2214 6.29717 16.2965 6.35877C16.4171 6.45775 16.599 6.61357 16.6886 6.69477C16.7056 6.71017 16.8186 6.81097 16.9398 6.91877C17.197 7.1476 17.3872 7.32015 17.5823 7.50201C17.7659 7.67309 17.7283 7.69052 18.1731 7.22796C18.8035 6.5722 18.7825 6.59845 18.727 6.53713C18.7009 6.50829 18.6673 6.48477 18.6522 6.48477C18.6372 6.48477 18.6045 6.46265 18.5795 6.43556C18.5546 6.40854 18.4996 6.36857 18.4573 6.34687C18.4149 6.3251 18.3803 6.29682 18.3803 6.28401C18.3803 6.27127 18.3637 6.26077 18.3435 6.26077C18.3233 6.26077 18.2824 6.23872 18.2525 6.21177C18.2227 6.18482 18.1636 6.14492 18.1213 6.12301C18.0789 6.10117 18.0443 6.07282 18.0443 6.06001C18.0443 6.04727 18.0248 6.03677 18.0011 6.03677C17.9773 6.03677 17.9309 6.01157 17.8978 5.98077C17.8648 5.94997 17.8212 5.92477 17.801 5.92477C17.7808 5.92477 17.7643 5.91217 17.7643 5.89677C17.7643 5.88137 17.7391 5.86877 17.7083 5.86877C17.6775 5.86877 17.6523 5.85617 17.6523 5.84077C17.6523 5.82537 17.6334 5.81277 17.6103 5.81277C17.5872 5.81277 17.5683 5.80115 17.5683 5.78701C17.5683 5.7728 17.5305 5.75292 17.4843 5.74277C17.4381 5.73262 17.4003 5.71274 17.4003 5.69853C17.4003 5.68439 17.3751 5.67277 17.3443 5.67277C17.3135 5.67277 17.2883 5.66017 17.2883 5.64477C17.2883 5.62937 17.2631 5.61677 17.2323 5.61677C17.2015 5.61677 17.1763 5.60417 17.1763 5.58877C17.1763 5.57337 17.1511 5.56077 17.1203 5.56077C17.0895 5.56077 17.0643 5.54817 17.0643 5.53277C17.0643 5.51737 17.0391 5.50477 17.0083 5.50477C16.9775 5.50477 16.9523 5.49217 16.9523 5.47677C16.9523 5.46137 16.9332 5.44877 16.9099 5.44877C16.8866 5.44877 16.8425 5.43617 16.8119 5.42077C16.7813 5.40537 16.7312 5.38017 16.7006 5.36477C16.67 5.34937 16.6259 5.33677 16.6026 5.33677C16.5793 5.33677 16.5603 5.32417 16.5603 5.30877C16.5603 5.29337 16.5288 5.28077 16.4903 5.28077C16.4518 5.28077 16.4203 5.26817 16.4203 5.25277C16.4203 5.23737 16.3888 5.22477 16.3503 5.22477C16.3118 5.22477 16.2803 5.21217 16.2803 5.19677C16.2803 5.18137 16.2488 5.16877 16.2103 5.16877C16.1718 5.16877 16.1403 5.15617 16.1403 5.14077C16.1403 5.12537 16.1032 5.11277 16.0579 5.11277C16.0126 5.11277 15.9678 5.10017 15.9583 5.08477C15.9487 5.06937 15.8976 5.05677 15.8446 5.05677C15.7916 5.05677 15.7483 5.04417 15.7483 5.02877C15.7483 5.01337 15.6979 5.00077 15.6363 5.00077C15.5747 5.00077 15.5243 4.98817 15.5243 4.97277C15.5243 4.95737 15.4683 4.94477 15.3999 4.94477C15.3315 4.94477 15.2678 4.93217 15.2583 4.91677C15.2487 4.90137 15.129 4.88877 14.9923 4.88877C14.8555 4.88877 14.7358 4.87617 14.7263 4.86077C14.7047 4.82591 14.6338 4.82997 14.5513 4.87085ZM21.4323 9.62084C21.3322 9.72675 21.2251 9.82209 21.1943 9.83273C21.1251 9.85667 20.5643 10.4034 20.5643 10.4469C20.5643 10.4643 20.6367 10.5547 20.7253 10.6479C20.9433 10.8773 21.2463 11.2147 21.4626 11.4688C21.5608 11.5843 21.6606 11.6977 21.6843 11.7208C21.7211 11.7568 21.8754 11.9412 22.0203 12.1224C22.0434 12.1513 22.0757 12.1893 22.0921 12.2069C22.1085 12.2244 22.2766 12.4341 22.4657 12.6728C22.6547 12.9115 22.8303 13.1171 22.8558 13.1298C22.91 13.1567 23.1123 13.4443 23.1123 13.4944C23.1123 13.513 23.1375 13.5466 23.1683 13.5688C23.1991 13.591 23.2243 13.6262 23.2243 13.647C23.2243 13.6845 23.2896 13.7648 23.3202 13.7648C23.3488 13.7648 23.3372 13.2646 23.3083 13.2468C23.2929 13.2372 23.2803 13.149 23.2803 13.0508C23.2803 12.9525 23.2693 12.8653 23.2559 12.857C23.2425 12.8487 23.2228 12.7409 23.212 12.6174C23.2012 12.4938 23.1806 12.3928 23.1664 12.3928C23.152 12.3928 23.1403 12.355 23.1403 12.3088C23.1403 12.2626 23.1277 12.2248 23.1123 12.2248C23.0969 12.2248 23.0843 12.187 23.0843 12.1408C23.0843 12.0946 23.0717 12.0568 23.0563 12.0568C23.0398 12.0568 23.0283 11.9588 23.0283 11.8188C23.0283 11.6788 23.0398 11.5808 23.0563 11.5808C23.0717 11.5808 23.0843 11.561 23.0843 11.5367C23.0843 11.4802 23.1517 11.4128 23.2082 11.4128C23.2324 11.4128 23.2523 11.4002 23.2523 11.3848C23.2523 11.3694 23.2712 11.3568 23.2943 11.3568C23.3414 11.3568 23.3515 11.2855 23.3083 11.2588C23.2929 11.2492 23.2803 11.217 23.2803 11.1871C23.2803 11.1572 23.2677 11.1328 23.2523 11.1328C23.2369 11.1328 23.2243 11.1076 23.2243 11.0768C23.2243 11.046 23.2117 11.0208 23.1963 11.0208C23.1809 11.0208 23.1683 10.9956 23.1683 10.9648C23.1683 10.934 23.1557 10.9088 23.1403 10.9088C23.1249 10.9088 23.1123 10.8902 23.1123 10.8676C23.1123 10.845 23.0873 10.782 23.0567 10.7276C23.0262 10.6732 23.0105 10.6283 23.0217 10.6279C23.033 10.6274 23.0222 10.6116 22.9978 10.5929C22.9734 10.5741 22.9407 10.521 22.9252 10.4748C22.8976 10.3923 22.7788 10.3652 22.7529 10.4354C22.7401 10.4703 22.4123 10.4677 22.4123 10.4328C22.4123 10.4174 22.388 10.4048 22.3583 10.4048C22.298 10.4048 22.1649 10.2562 22.0861 10.1008C22.0576 10.0447 22.0248 9.99457 22.0133 9.98946C22.0017 9.98428 21.9923 9.96538 21.9922 9.94746C21.9922 9.92947 21.9544 9.87067 21.9083 9.81677C21.8621 9.76287 21.8243 9.70582 21.8243 9.68993C21.8243 9.67411 21.7991 9.64296 21.7683 9.62077C21.7375 9.59858 21.7123 9.56337 21.7123 9.54258C21.7123 9.5087 21.6458 9.42211 21.6233 9.42652C21.6183 9.42757 21.5324 9.515 21.4323 9.62084ZM28.2794 21.3696C28.543 21.5061 28.951 21.753 28.9923 21.8011C29 21.8102 29.0502 21.8482 29.1039 21.8857C29.3575 22.0631 29.926 22.631 29.9049 22.6859C29.8971 22.7063 29.9047 22.7316 29.9218 22.7422C29.9406 22.7538 29.945 22.7486 29.9329 22.7291C29.9219 22.7113 29.9263 22.6968 29.9426 22.6968C29.9589 22.6968 29.9723 22.7136 29.9723 22.7341C29.9723 22.7545 30.0656 22.8552 30.1798 22.9578C31.2357 23.9066 31.8037 25.6319 31.5041 26.9808C31.2857 27.9639 30.9088 28.6623 30.2481 29.3085C30.0964 29.4568 29.9723 29.59 29.9723 29.6045C29.9723 29.6612 29.3077 30.3093 29.1022 30.453C29.0495 30.4899 29 30.5289 28.9923 30.5396C28.968 30.5732 28.516 30.8465 28.2967 30.9599C28.0596 31.0826 28.0836 31.0948 28.3978 31.0111C29.5752 30.6976 30.54 30.0344 31.2409 29.0569C31.6038 28.5509 31.8882 27.9286 32.0261 27.3398C32.1338 26.8794 32.1423 26.7923 32.1411 26.1548C32.1383 24.4536 31.3553 22.9649 29.9741 22.0348C29.4993 21.7151 28.9459 21.4683 28.3856 21.3266C28.0704 21.2469 28.0545 21.2533 28.2794 21.3696ZM23.6147 22.6618L23.5183 22.7668L23.6233 22.6703C23.681 22.6172 23.7283 22.5699 23.7283 22.5653C23.7283 22.5439 23.7046 22.5641 23.6147 22.6618ZM26.7172 22.6567C26.4226 22.697 26.05 22.7889 25.8703 22.8655C25.6223 22.9713 25.4726 23.0467 25.3612 23.1218C25.2968 23.1653 25.2371 23.2008 25.2286 23.2008C25.2105 23.2008 25.1841 23.2214 24.9183 23.4423C24.6754 23.6442 24.6476 23.6719 24.4458 23.9148C24.2248 24.1806 24.2043 24.207 24.2043 24.2251C24.2043 24.2336 24.1688 24.2933 24.1253 24.3577C24.0517 24.4669 23.9754 24.6173 23.8744 24.8528C23.6996 25.2599 23.5969 25.9701 23.6433 26.4488C23.7009 27.0406 23.8837 27.6211 24.1254 27.9798C24.1688 28.0442 24.2043 28.1104 24.2043 28.1268C24.2043 28.1433 24.2141 28.1568 24.2262 28.1568C24.2383 28.1568 24.2687 28.1914 24.2939 28.2338C24.4092 28.4283 24.8255 28.8565 25.0443 29.0056C25.1136 29.0528 25.1745 29.1017 25.1796 29.1142C25.1848 29.1266 25.2013 29.1368 25.2165 29.1368C25.2317 29.1368 25.2968 29.1719 25.3612 29.2149C25.4256 29.2578 25.5413 29.3222 25.6183 29.3579C25.6953 29.3937 25.7772 29.4318 25.8003 29.4426C25.8234 29.4535 25.9741 29.5056 26.1353 29.5585C26.5483 29.6942 26.6396 29.793 26.616 30.0788C26.6096 30.1565 26.732 30.1788 27.1723 30.1803C27.6601 30.1819 27.7925 30.1566 27.7527 30.0693C27.7293 30.0179 27.7297 29.9872 27.7548 29.9471C27.7732 29.9176 27.7883 29.8776 27.7883 29.8581C27.7884 29.7487 27.9408 29.6452 28.2533 29.5422C28.3749 29.5022 28.5121 29.4528 28.5583 29.4325C28.7699 29.3391 28.8673 29.2925 28.8803 29.2782C28.888 29.2697 28.9226 29.247 28.9573 29.2278C28.9919 29.2085 29.0486 29.177 29.0833 29.1578C29.1179 29.1385 29.1526 29.1158 29.1603 29.1074C29.168 29.099 29.2184 29.0615 29.2723 29.0242C29.4935 28.8711 29.8745 28.49 30.0277 28.2688C30.065 28.2149 30.1025 28.1645 30.1109 28.1568C30.1193 28.1491 30.142 28.1144 30.1613 28.0798C30.1805 28.0451 30.212 27.9884 30.2313 27.9538C30.2505 27.9191 30.2732 27.8845 30.2817 27.8768C30.2961 27.8638 30.3315 27.7898 30.4326 27.5618C30.7971 26.7395 30.7975 25.5805 30.4334 24.7758C30.4108 24.7257 30.3708 24.6375 30.3447 24.5798C30.3186 24.522 30.2902 24.4685 30.2817 24.4608C30.2732 24.4531 30.2505 24.4184 30.2313 24.3838C30.1281 24.1981 30.1366 24.2106 29.9711 23.9988C29.7994 23.7788 29.4488 23.4348 29.2723 23.313C29.2184 23.2759 29.168 23.2386 29.1603 23.2301C29.1526 23.2217 29.1179 23.199 29.0833 23.1798C29.0486 23.1605 28.9919 23.129 28.9573 23.1098C28.9226 23.0905 28.888 23.0678 28.8803 23.0593C28.8355 23.0098 28.3453 22.8168 28.0963 22.7505C27.6173 22.6231 27.1802 22.5934 26.7172 22.6567ZM26.9864 23.3586C27.048 23.4202 27.0603 23.4575 27.0603 23.5839C27.0603 23.7074 27.0729 23.748 27.129 23.804C27.2627 23.9378 27.3963 23.8585 27.3963 23.6453C27.3963 23.3576 27.4852 23.2862 27.8443 23.2855C28.2236 23.2848 28.2743 23.327 28.286 23.6528C28.2978 23.9803 28.3022 23.9916 28.4576 24.0923C28.8768 24.364 29.13 24.9161 29.0444 25.3722C29.0086 25.5633 28.9947 25.6051 28.9123 25.7724C28.8331 25.933 28.8367 25.9978 28.9307 26.0988C29.6293 26.8496 29.4284 28.0527 28.5304 28.4948C28.3094 28.6036 28.303 28.6139 28.2859 28.8939C28.2675 29.1934 28.2328 29.2267 27.9225 29.2426C27.5172 29.2635 27.3964 29.1818 27.3963 28.8869C27.3963 28.6721 27.2363 28.5845 27.1183 28.7346C27.0763 28.7879 27.0603 28.849 27.0603 28.9555C27.0603 29.1698 27.0077 29.2225 26.7752 29.2411C26.3248 29.2773 26.1923 29.2044 26.1923 28.9208C26.1923 28.7066 26.133 28.6608 25.8568 28.6608C25.52 28.6608 25.4786 28.6156 25.4784 28.2478C25.4782 27.8495 25.548 27.7648 25.876 27.7648C26.0552 27.7648 26.0523 27.7905 26.0523 26.2386V24.8549L25.991 24.7979C25.9443 24.7544 25.892 24.7408 25.7718 24.7408C25.5205 24.7408 25.4783 24.6776 25.4783 24.3021C25.4783 23.9157 25.5162 23.8728 25.8578 23.8728C26.1443 23.8728 26.1923 23.8339 26.1923 23.6013C26.1923 23.3376 26.2649 23.2848 26.6277 23.2848C26.8982 23.2848 26.9163 23.2885 26.9864 23.3586ZM26.9903 24.7849C26.9121 24.8439 26.9047 25.5131 26.9812 25.5897C27.0578 25.6664 27.7986 25.6583 27.9466 25.5793C28.2779 25.4024 28.255 24.927 27.9082 24.7821C27.7666 24.7228 27.0695 24.725 26.9903 24.7849ZM26.9727 26.579C26.9432 26.6147 26.9343 26.7463 26.9343 27.1488C26.9343 27.8239 26.8765 27.7648 27.5365 27.7648H28.062L28.1981 27.6738C28.6014 27.4043 28.5728 26.8278 28.1444 26.5912C27.9992 26.5111 27.0374 26.5011 26.9727 26.579ZM23.6151 29.6758C23.6837 29.7489 23.7436 29.8088 23.7481 29.8088C23.7691 29.8088 23.7469 29.7836 23.6233 29.6676L23.4903 29.5428L23.6151 29.6758ZM13.1303 30.0048C13.0995 30.018 13.0374 30.0297 12.9922 30.0308C12.9087 30.0328 12.7493 30.0759 12.6616 30.1202C12.6349 30.1337 12.5938 30.1448 12.5703 30.1448C12.5467 30.1448 12.5025 30.1574 12.4719 30.1728C12.4413 30.1882 12.3912 30.2134 12.3606 30.2288C12.33 30.2442 12.2859 30.2568 12.2626 30.2568C12.2393 30.2568 12.2203 30.2663 12.2203 30.2779C12.2203 30.2896 12.1793 30.3169 12.1293 30.3387C11.8003 30.4817 11.2545 30.9662 11.0075 31.3345C10.7866 31.6637 10.4797 31.6288 13.5923 31.6288C15.0861 31.6288 16.3083 31.6211 16.3083 31.6115C16.3083 31.5845 16.1859 31.3666 16.1482 31.3267C16.1295 31.3069 16.0927 31.2543 16.0663 31.2097C15.946 31.006 15.1967 30.3688 15.0775 30.3688C15.0614 30.3688 15.0483 30.3562 15.0483 30.3408C15.0483 30.3254 15.0231 30.3128 14.9923 30.3128C14.9615 30.3128 14.9363 30.3002 14.9363 30.2848C14.9363 30.2694 14.9172 30.2568 14.8939 30.2568C14.8706 30.2568 14.8296 30.2456 14.8029 30.2321C14.639 30.1486 14.4136 30.0817 14.0451 30.007C13.87 29.9715 13.2114 29.9699 13.1303 30.0048Z" fill="#F79A5F"/>
<path fill-rule="evenodd" clip-rule="evenodd" d="M13.8653 4.01155C13.7922 4.01834 13.7323 4.03577 13.7323 4.05033C13.7323 4.06489 13.6945 4.07679 13.6483 4.07679C13.6021 4.07679 13.5643 4.08939 13.5643 4.10479C13.5643 4.12019 13.5451 4.13279 13.5215 4.13279C13.4654 4.13279 13.2527 4.34867 13.204 4.45514C13.183 4.50113 13.1547 4.5607 13.141 4.58744C13.1072 4.65387 13.1097 4.93744 13.1443 4.95879C13.1597 4.96831 13.1723 5.00688 13.1723 5.04447C13.1723 5.08206 13.1849 5.11279 13.2003 5.11279C13.2157 5.11279 13.2283 5.13204 13.2283 5.15556C13.2283 5.21107 13.466 5.44879 13.5215 5.44879C13.5451 5.44879 13.5643 5.46139 13.5643 5.47679C13.5643 5.49219 13.5831 5.50479 13.606 5.50479C13.6289 5.50479 13.6734 5.52684 13.7047 5.55379C13.7761 5.61497 13.9542 5.72417 14.0193 5.7465C14.0463 5.75574 14.0683 5.77443 14.0683 5.78808C14.0683 5.80166 14.0872 5.81279 14.1103 5.81279C14.1334 5.81279 14.1523 5.82329 14.1523 5.83603C14.1523 5.84884 14.187 5.87712 14.2293 5.89889C14.2717 5.92059 14.3267 5.96056 14.3516 5.98758C14.3765 6.01467 14.4093 6.03679 14.4245 6.03679C14.4396 6.03679 14.4915 6.07459 14.5399 6.12079C14.5883 6.16699 14.639 6.20479 14.6527 6.20479C14.6664 6.20479 14.7295 6.25519 14.793 6.31679C14.8564 6.37839 14.9163 6.42879 14.926 6.42879C14.9356 6.42879 14.9904 6.46974 15.0478 6.51979C15.3007 6.74071 15.4211 6.83731 15.486 6.87154C15.5243 6.89177 15.6192 6.97052 15.6968 7.04654C15.7744 7.12256 15.85 7.18479 15.8647 7.18479C15.8794 7.18479 15.9656 7.26039 16.0563 7.35279C16.147 7.44519 16.2284 7.52079 16.2373 7.52079C16.2462 7.52079 16.3327 7.59954 16.4297 7.69579C16.6037 7.86855 16.7216 7.97075 16.8412 8.05279C17.0537 8.19846 17.1043 8.29163 17.0083 8.36079C16.9775 8.38298 16.9523 8.42358 16.9523 8.45095C16.9523 8.47839 16.9397 8.50079 16.9243 8.50079C16.9074 8.50079 16.8963 8.6221 16.8963 8.80879C16.8963 8.97924 16.9079 9.11679 16.9223 9.11679C17.0577 9.11679 16.9505 9.24069 15.9267 10.2675C15.7275 10.4674 15.0303 11.1646 14.7748 11.4196C14.6782 11.516 14.4045 11.7901 14.1664 12.0288C13.6305 12.566 13.5696 12.6269 13.0323 13.1629C12.7936 13.4009 12.5211 13.6731 12.4267 13.7677C12.2053 13.9896 11.4931 14.7018 11.2712 14.9232C11.1766 15.0176 10.9045 15.2901 10.6664 15.5288C10.1293 16.0673 10.0684 16.1282 9.53232 16.6628C8.93361 17.26 8.74832 17.455 8.74832 17.4883C8.74832 17.504 8.73572 17.5168 8.72032 17.5168C8.70492 17.5168 8.69232 17.542 8.69232 17.5728C8.69232 17.6036 8.67972 17.6288 8.66432 17.6288C8.64892 17.6288 8.63632 17.6532 8.63632 17.6831C8.63632 17.713 8.62372 17.7453 8.60832 17.7548C8.59292 17.7643 8.58032 17.8155 8.58032 17.8685C8.58032 17.9215 8.56772 17.9648 8.55232 17.9648C8.53545 17.9648 8.52432 18.0815 8.52432 18.2588C8.52432 18.4361 8.53545 18.5528 8.55232 18.5528C8.56772 18.5528 8.58032 18.5961 8.58032 18.6491C8.58032 18.7021 8.59292 18.7533 8.60832 18.7628C8.62372 18.7723 8.63632 18.8046 8.63632 18.8345C8.63632 18.8644 8.64892 18.8888 8.66432 18.8888C8.67972 18.8888 8.69232 18.914 8.69232 18.9448C8.69232 18.9756 8.70282 19.0008 8.71556 19.0008C8.72837 19.0008 8.75672 19.0354 8.77856 19.0778C8.88405 19.2822 9.23937 19.5375 9.56228 19.6408C9.68695 19.6807 10.2603 19.6839 10.2603 19.6448C10.2603 19.6294 10.2857 19.6168 10.3167 19.6168C10.3956 19.6168 10.5963 19.5516 10.5963 19.526C10.5963 19.5143 10.6128 19.5048 10.6331 19.5048C10.6532 19.5048 10.6942 19.4827 10.7241 19.4558C10.754 19.4288 10.8242 19.3726 10.8801 19.3308C10.936 19.289 11.0494 19.1831 11.1321 19.0953C11.3148 18.9012 11.681 18.5342 11.8868 18.339C11.9701 18.26 12.2282 18.0017 12.4602 17.765C12.6922 17.5284 13.0009 17.22 13.1462 17.0796C13.2915 16.9394 13.5623 16.6685 13.748 16.4776C13.9337 16.2869 14.192 16.0284 14.322 15.9033C14.7306 15.51 15.4123 14.8037 15.4123 14.7736C15.4123 14.7577 15.4249 14.7448 15.4403 14.7448C15.4822 14.7448 15.4759 14.3281 15.4333 14.2868C15.2913 14.1487 14.9976 14.0677 14.8715 14.1319C14.8378 14.149 13.7834 15.1873 12.5283 16.4391C10.3109 18.6509 10.2419 18.7167 10.0897 18.7638C9.63592 18.9042 9.21347 18.3724 9.47548 17.9905C9.57194 17.8498 17.587 9.84479 17.6314 9.84479C17.6521 9.84479 17.8313 10.0087 18.0295 10.2091L18.39 10.5734L17.2308 11.7343C16.5933 12.3728 16.0628 12.9176 16.0519 12.9449C15.9813 13.1239 16.1111 13.5155 16.2479 13.5357C16.2812 13.5406 16.3083 13.5564 16.3083 13.5707C16.3083 13.6059 16.5245 13.6041 16.5463 13.5688C16.5558 13.5534 16.5881 13.5408 16.618 13.5408C16.6479 13.5408 16.6723 13.5282 16.6723 13.5128C16.6723 13.4974 16.6897 13.4848 16.7109 13.4848C16.732 13.4848 16.836 13.3942 16.9419 13.2835C17.0477 13.1729 17.2904 12.9303 17.4812 12.7445C17.672 12.5588 17.9429 12.2879 18.0832 12.1425C18.8019 11.3979 19.0803 11.1551 19.0803 11.2728C19.0803 11.2882 19.1174 11.3008 19.1626 11.3008C19.2079 11.3008 19.2528 11.3134 19.2623 11.3288C19.2848 11.3652 19.4639 11.3652 19.4863 11.3288C19.4958 11.3134 19.5399 11.3008 19.5844 11.3008C19.6613 11.3008 19.8582 11.2064 19.8963 11.1513C19.9121 11.1284 20.1723 11.3608 20.1723 11.3979C20.1723 11.4059 20.2857 11.5267 20.4243 11.6663C20.5629 11.806 20.6763 11.9316 20.6763 11.9456C20.6763 11.9684 20.7552 12.0643 20.9143 12.2351C20.9451 12.2681 21.0063 12.3433 21.0503 12.402C21.0944 12.4608 21.1731 12.5517 21.2253 12.6039C21.2776 12.6562 21.3203 12.7066 21.3203 12.716C21.3203 12.7255 21.3707 12.7816 21.4323 12.8408C21.4939 12.9 21.5443 12.9605 21.5443 12.9752C21.5443 12.99 21.5947 13.0539 21.6563 13.1174C21.7179 13.1809 21.7683 13.2436 21.7683 13.2567C21.7683 13.2697 21.8053 13.3192 21.8505 13.3664C21.8957 13.4137 21.9513 13.488 21.9741 13.5316C21.9969 13.5752 22.0418 13.6386 22.0739 13.6726C22.1061 13.7066 22.1323 13.7476 22.1323 13.7636C22.1323 13.7796 22.1418 13.7929 22.1533 13.793C22.1649 13.7931 22.2057 13.8403 22.244 13.898C22.2823 13.9556 22.3358 14.0232 22.363 14.0481C22.3901 14.073 22.4123 14.1111 22.4123 14.1329C22.4123 14.1546 22.4375 14.1906 22.4683 14.2128C22.4991 14.235 22.5243 14.2756 22.5243 14.3029C22.5243 14.3304 22.5369 14.3528 22.5523 14.3528C22.5677 14.3528 22.5803 14.3693 22.5803 14.3895C22.5803 14.4097 22.6055 14.4533 22.6363 14.4863C22.6671 14.5194 22.6923 14.5659 22.6923 14.5896C22.6923 14.6133 22.7049 14.6328 22.7203 14.6328C22.7357 14.6328 22.7483 14.6504 22.7483 14.6719C22.7483 14.7388 23.0232 14.9971 23.1136 15.0153C23.1597 15.0244 23.2043 15.043 23.2126 15.0564C23.2499 15.1167 23.6 15.0807 23.7563 15.0006C23.9205 14.9163 24.1035 14.7103 24.1301 14.5797C24.1382 14.5396 24.1592 14.4501 24.1768 14.3808C24.257 14.0651 24.2778 12.8623 24.2047 12.7708C24.1924 12.7554 24.1751 12.6861 24.1662 12.6168C24.1303 12.3362 24.1133 12.2517 24.0894 12.237C24.0756 12.2284 24.0643 12.1789 24.0643 12.1268C24.0643 12.0747 24.0517 12.0243 24.0363 12.0148C24.0209 12.0053 24.0083 11.9675 24.0083 11.9308C24.0083 11.8941 23.9957 11.8563 23.9803 11.8468C23.9649 11.8373 23.9523 11.8074 23.9523 11.7804C23.9523 11.6572 23.7955 11.4128 23.7164 11.4128C23.6921 11.4128 23.6723 11.4002 23.6723 11.3848C23.6723 11.3692 23.5976 11.3568 23.5043 11.3568C23.4119 11.3568 23.3363 11.3687 23.3363 11.3832C23.3363 11.3977 23.2997 11.4313 23.255 11.4577C23.0528 11.5771 23.0217 11.7474 23.1374 12.1021C23.3431 12.7333 23.4461 13.489 23.3749 13.8449C23.3526 13.9565 23.3367 13.9446 23.1632 13.6858C23.0287 13.4851 22.5596 12.8439 22.5245 12.8128C22.5159 12.8051 22.4242 12.6895 22.3208 12.556C22.2173 12.4225 22.1169 12.2965 22.0975 12.276C22.0781 12.2555 21.9678 12.1257 21.8523 11.9876C21.6123 11.7003 21.2558 11.2897 21.086 11.1047C20.699 10.683 20.5083 10.4643 20.5083 10.4419C20.5083 10.3882 21.6006 9.33491 21.6404 9.35017C21.6781 9.36466 21.8758 9.635 22.0611 9.92515C22.3297 10.3462 22.4224 10.421 22.6363 10.3898C22.7056 10.3797 22.7974 10.3709 22.8402 10.3701C22.99 10.3676 23.1176 10.0747 23.0516 9.8849C23.0094 9.76324 22.861 9.50011 22.8264 9.48548C22.8143 9.4803 22.8043 9.46021 22.8043 9.44082C22.8043 9.42136 22.7791 9.38265 22.7483 9.35479C22.7175 9.32693 22.6923 9.28997 22.6923 9.27261C22.6923 9.25532 22.6671 9.22298 22.6363 9.20079C22.6055 9.1786 22.5803 9.14619 22.5803 9.12876C22.5803 9.11133 22.5425 9.05757 22.4963 9.0092C22.4501 8.96083 22.4123 8.90693 22.4123 8.88936C22.4123 8.87172 22.3852 8.83385 22.3521 8.80508L22.2918 8.75279L22.3521 8.7005C22.3852 8.67173 22.4123 8.62763 22.4123 8.6025C22.4123 8.57737 22.4249 8.55679 22.4403 8.55679C22.4557 8.55679 22.4683 8.53159 22.4683 8.50079C22.4683 8.46999 22.4809 8.44479 22.4963 8.44479C22.5131 8.44479 22.5243 8.33748 22.5243 8.17879C22.5243 8.0201 22.5131 7.91279 22.4963 7.91279C22.4809 7.91279 22.4683 7.88759 22.4683 7.85679C22.4683 7.82599 22.4557 7.80079 22.4403 7.80079C22.4249 7.80079 22.4123 7.78161 22.4123 7.75816C22.4123 7.70762 20.5367 5.81944 20.4331 5.76575C20.3939 5.74545 20.3444 5.72879 20.3231 5.72879C20.3018 5.72879 20.2843 5.71619 20.2843 5.70079C20.2843 5.6842 20.1816 5.67279 20.0323 5.67279C19.883 5.67279 19.7803 5.6842 19.7803 5.70079C19.7803 5.71619 19.752 5.729 19.7173 5.72921C19.6827 5.72949 19.6127 5.76638 19.5618 5.81125L19.4692 5.8928L19.3378 5.80467C19.2655 5.75616 19.1819 5.69407 19.1521 5.66663C19.1222 5.63919 19.084 5.61679 19.0672 5.61679C19.0504 5.61679 19.0185 5.59159 18.9963 5.56079C18.9741 5.52999 18.9363 5.50479 18.9123 5.50479C18.8883 5.50479 18.8505 5.47959 18.8283 5.44879C18.8061 5.41799 18.7713 5.39279 18.751 5.39279C18.7306 5.39279 18.6869 5.36759 18.6539 5.33679C18.6208 5.30599 18.5772 5.28079 18.5571 5.28079C18.5368 5.28079 18.5203 5.26819 18.5203 5.25279C18.5203 5.23739 18.4997 5.22479 18.4746 5.22479C18.4495 5.22479 18.4085 5.20176 18.3836 5.17369C18.3587 5.14555 18.2974 5.10467 18.2473 5.08283C18.1973 5.06099 18.1563 5.03362 18.1563 5.02193C18.1563 5.01031 18.1311 5.00079 18.1003 5.00079C18.0695 5.00079 18.0443 4.99015 18.0443 4.9772C18.0443 4.96418 17.9845 4.92323 17.9113 4.8862C17.8382 4.8491 17.7741 4.80934 17.769 4.79779C17.7638 4.78624 17.7355 4.77679 17.706 4.77679C17.6765 4.77679 17.6523 4.76419 17.6523 4.74879C17.6523 4.73339 17.6358 4.72079 17.6156 4.72079C17.5953 4.72079 17.5135 4.68929 17.4337 4.65079C17.3539 4.61229 17.2696 4.58079 17.2465 4.58079C17.2233 4.58079 17.2043 4.56819 17.2043 4.55279C17.2043 4.53739 17.1728 4.52479 17.1343 4.52479C17.0958 4.52479 17.0643 4.51219 17.0643 4.49679C17.0643 4.48139 17.0399 4.46879 17.01 4.46879C16.9801 4.46879 16.9478 4.45619 16.9383 4.44079C16.9288 4.42539 16.8902 4.41279 16.8526 4.41279C16.815 4.41279 16.7843 4.40019 16.7843 4.38479C16.7843 4.36939 16.759 4.35679 16.728 4.35679C16.697 4.35679 16.6466 4.34419 16.616 4.32879C16.5854 4.31339 16.5353 4.28819 16.5047 4.27279C16.4741 4.25739 16.4244 4.24479 16.3943 4.24479C16.3642 4.24479 16.3318 4.23219 16.3223 4.21679C16.3128 4.20139 16.2616 4.18879 16.2086 4.18879C16.1556 4.18879 16.1123 4.17619 16.1123 4.16079C16.1123 4.14539 16.0682 4.13279 16.0143 4.13279C15.9604 4.13279 15.9163 4.12019 15.9163 4.10479C15.9163 4.08939 15.867 4.07679 15.8066 4.07679C15.7464 4.07679 15.692 4.06195 15.686 4.04382C15.6749 4.01057 14.166 3.98383 13.8653 4.01155ZM15.1291 4.83419C16.1239 4.99204 17.1944 5.4266 18.1573 6.06367C18.2426 6.12009 18.3308 6.17497 18.3533 6.18568C18.4384 6.22614 18.8132 6.50663 18.8409 6.55066C18.8681 6.59385 17.8258 7.68879 17.7575 7.68879C17.7372 7.68879 17.3301 7.33368 17.0223 7.04759C16.7406 6.78579 15.7507 5.94992 15.5067 5.76792C15.447 5.72347 15.392 5.68021 15.3843 5.67181C15.3494 5.63359 14.6009 5.08556 14.4883 5.01577C14.2995 4.89866 14.2558 4.85554 14.2987 4.82831C14.3501 4.79562 14.9113 4.79961 15.1291 4.83419ZM20.8375 7.38793L21.6283 8.17907L20.5088 9.2983L19.3894 10.4175L18.6048 9.63479C18.1733 9.20436 17.8203 8.83308 17.8203 8.80984C17.8203 8.76371 19.9725 6.59714 20.0185 6.59693C20.034 6.59686 20.4026 6.95281 20.8375 7.38793ZM32.5343 8.69679C32.5248 8.71219 32.4806 8.72479 32.436 8.72479C32.353 8.72479 32.0608 8.98722 31.4743 9.58859C31.224 9.84521 30.7348 10.3342 30.4151 10.6473C30.3025 10.7577 30.045 11.016 29.8429 11.2213C29.6408 11.4267 29.3699 11.6978 29.2409 11.8238C29.1119 11.9498 28.8534 12.2081 28.6665 12.3978C28.4797 12.5875 28.2214 12.8455 28.0925 12.9711C27.9637 13.0966 27.6926 13.3675 27.4899 13.5731C27.2873 13.7786 27.029 14.037 26.9159 14.1472C26.2036 14.8417 25.9123 15.1861 25.9123 15.3338C25.9123 15.3622 25.8997 15.3933 25.8843 15.4028C25.8689 15.4123 25.8563 15.5131 25.8563 15.6268C25.8563 15.7405 25.8689 15.8413 25.8843 15.8508C25.8997 15.8603 25.9123 15.943 25.9123 16.0345C25.9123 16.1267 25.9248 16.2008 25.9403 16.2008C25.9582 16.2008 25.9683 16.4335 25.9683 16.8431C25.9683 17.2412 25.9577 17.4921 25.9403 17.5028C25.9249 17.5123 25.9123 17.5753 25.9123 17.6428C25.9123 17.7103 25.8997 17.7733 25.8843 17.7828C25.8689 17.7923 25.8563 17.7799 25.8563 17.7553C25.8563 17.7306 25.8311 17.6834 25.8003 17.6503C25.7695 17.6173 25.7443 17.5737 25.7443 17.5535C25.7443 17.5333 25.7317 17.5168 25.7163 17.5168C25.7009 17.5168 25.6883 17.5007 25.6883 17.4809C25.6883 17.4613 25.6631 17.427 25.6323 17.4048C25.6015 17.3826 25.5763 17.3487 25.5763 17.3295C25.5763 17.2658 25.2549 16.9288 25.1942 16.9288C25.1733 16.9288 25.1563 16.9162 25.1563 16.9008C25.1563 16.8854 25.1185 16.8728 25.0723 16.8728C25.0261 16.8728 24.9883 16.8602 24.9883 16.8448C24.9883 16.8279 24.8716 16.8168 24.6943 16.8168C24.517 16.8168 24.4003 16.8279 24.4003 16.8448C24.4003 16.8602 24.3712 16.8728 24.3356 16.8728C24.3 16.8728 24.2438 16.898 24.2108 16.9288C24.1777 16.9596 24.1379 16.9848 24.1223 16.9848C24.0916 16.9848 23.6936 17.3614 23.327 17.7374C23.2012 17.8664 22.9303 18.1373 22.7249 18.3394C22.5195 18.5414 22.2612 18.7993 22.1509 18.9124C22.0406 19.0254 21.7822 19.2837 21.5766 19.4864C21.3711 19.689 21.1002 19.96 20.9746 20.0886C20.7215 20.3478 20.2297 20.8393 19.9151 21.1473C19.8025 21.2577 19.545 21.516 19.3429 21.7213C19.1408 21.9267 18.8699 22.1978 18.7409 22.3238C18.6119 22.4498 18.3534 22.7081 18.1665 22.8978C17.9797 23.0875 17.7214 23.3439 17.5925 23.4674C17.4637 23.591 17.3125 23.7453 17.2565 23.8104C17.2005 23.8755 17.1405 23.9288 17.1231 23.9288C17.0829 23.9288 16.43 23.2963 15.7311 22.5802C15.5907 22.4365 15.3324 22.1789 15.1571 22.0078C14.9817 21.8367 14.7179 21.5713 14.5708 21.4179C14.0746 20.9007 13.6778 20.7602 13.183 20.9266C12.9643 21.0001 13.1253 20.8444 8.94733 25.0192L5.01185 28.9516L5.00107 29.22C4.99008 29.4929 5.06414 29.6688 5.18993 29.6688C5.20708 29.6688 5.24649 29.6845 5.27757 29.7038C5.31957 29.7298 5.33917 29.7306 5.35415 29.7067C5.36521 29.689 5.43101 29.6597 5.50031 29.6415C5.61665 29.611 5.9285 29.3064 9.56088 25.6766C12.5482 22.6913 13.5112 21.7448 13.561 21.7448C13.6106 21.7448 14.2021 22.3205 15.9895 24.1085L18.3523 26.4723V28.0103C18.3523 29.084 18.3619 29.5772 18.3841 29.6436C18.4757 29.9175 18.7723 30.0203 19.0037 29.8585C19.157 29.7513 19.1643 29.7085 19.1643 28.9142C19.1643 28.3829 19.1731 28.1848 19.1965 28.1848C19.2142 28.1848 19.4349 28.3892 19.6869 28.6389C20.1933 29.1411 20.2215 29.1624 20.3823 29.1637C20.6691 29.166 20.8721 28.8531 20.7467 28.6023C20.7204 28.5498 20.3568 28.1634 19.9386 27.7437L19.1783 26.9806L19.1634 26.6237C19.1417 26.1049 19.1512 26.1202 18.3496 25.3142L17.6807 24.6417L21.1602 21.1632C23.0739 19.2501 24.6519 17.6857 24.667 17.6867C24.7671 17.694 24.9437 17.9215 25.1289 18.2819C25.4588 18.9238 26.2373 19.0114 26.5755 18.4447C26.8099 18.0521 26.9232 17.0268 26.8204 16.2288C26.7976 16.0517 26.7719 15.8312 26.7632 15.7388L26.7474 15.5708L27.3395 14.9828L27.9316 14.3948L28.0758 14.5488C28.1551 14.6335 28.3487 14.8372 28.506 15.0015C28.9414 15.4563 28.9214 15.3359 28.7128 16.2428C28.6987 16.3044 28.6728 16.4241 28.6553 16.5088C28.6378 16.5935 28.6119 16.7084 28.5979 16.764C28.5227 17.0619 28.5731 17.3562 28.7507 17.6562C28.8785 17.8722 28.9062 17.8231 28.4323 18.2211C27.542 18.9689 27.3998 19.2027 27.6662 19.4808C27.8726 19.6963 28.0586 19.6603 28.3903 19.3408C28.6705 19.0706 29.2289 18.5993 29.2835 18.5867C29.3123 18.58 29.4963 18.832 29.4963 18.8782C29.4963 18.8857 29.5443 18.9636 29.603 19.0513C29.6617 19.139 29.7436 19.2698 29.7851 19.342C29.98 19.6809 30.4109 19.6985 30.547 19.373C30.6154 19.2091 30.5983 19.1138 30.4598 18.8888C30.4266 18.8349 30.2259 18.5073 30.0138 18.1608C29.8018 17.8143 29.5723 17.4426 29.5041 17.3348C29.3706 17.1241 29.3605 17.033 29.4358 16.7188C29.4506 16.6572 29.4778 16.5375 29.4963 16.4528C29.5365 16.2683 29.5768 16.087 29.6112 15.9348C29.7709 15.2291 29.7264 15.1056 29.0607 14.4088C28.9209 14.2625 28.7387 14.0696 28.6558 13.98L28.5049 13.8173L30.5462 11.778C31.6719 10.6535 32.6031 9.74483 32.6222 9.75211C32.6413 9.75946 32.7301 9.69226 32.8196 9.6028L32.9823 9.44012L32.9918 9.17202C33.0031 8.85079 32.9302 8.72479 32.7331 8.72479C32.6777 8.72479 32.6323 8.71219 32.6323 8.69679C32.6323 8.68139 32.6142 8.66879 32.592 8.66879C32.5698 8.66879 32.5438 8.68139 32.5343 8.69679ZM25.0781 11.5612C25.0582 11.5797 25.0046 11.6313 24.9591 11.6759L24.8763 11.7571V12.2569C24.8763 12.5715 24.8867 12.7568 24.9043 12.7568C24.9197 12.7568 24.9323 12.7766 24.9323 12.8008C24.9323 12.8574 24.9997 12.9248 25.0563 12.9248C25.0805 12.9248 25.1003 12.9374 25.1003 12.9528C25.1003 12.9691 25.194 12.9808 25.3252 12.9808C25.5781 12.9808 25.7443 12.8756 25.7443 12.7157C25.7443 12.6767 25.7569 12.6448 25.7723 12.6448C25.7897 12.6448 25.8003 12.496 25.8003 12.2545C25.8003 12.0244 25.7888 11.857 25.7723 11.8468C25.7569 11.8373 25.7443 11.8081 25.7443 11.7821C25.7443 11.7181 25.6227 11.5808 25.566 11.5808C25.5409 11.5808 25.5203 11.5682 25.5203 11.5528C25.5203 11.5125 25.1225 11.52 25.0781 11.5612ZM26.8923 11.8608C26.8923 11.8762 26.8722 11.8888 26.8475 11.8888C26.7901 11.8888 26.6584 12.0295 26.6128 12.1396C26.5934 12.1864 26.5665 12.2248 26.5529 12.2248C26.5394 12.2248 26.5283 12.25 26.5283 12.2808C26.5283 12.3116 26.5157 12.3368 26.5003 12.3368C26.4849 12.3368 26.4723 12.3592 26.4723 12.3866C26.4723 12.414 26.4471 12.4546 26.4163 12.4768C26.3855 12.499 26.3603 12.5396 26.3603 12.5669C26.3603 12.5944 26.3477 12.6168 26.3323 12.6168C26.3165 12.6168 26.3043 12.6961 26.3043 12.7988C26.3043 12.9015 26.3165 12.9808 26.3323 12.9808C26.3477 12.9808 26.3603 13.0002 26.3603 13.024C26.3603 13.08 26.4851 13.2048 26.5411 13.2048C26.5649 13.2048 26.5843 13.2174 26.5843 13.2328C26.5843 13.2486 26.6636 13.2608 26.7663 13.2608C26.869 13.2608 26.9483 13.2486 26.9483 13.2328C26.9483 13.2174 26.9678 13.2048 26.9916 13.2048C27.0441 13.2048 27.144 13.1066 27.1981 13.0018C27.2199 12.9594 27.2483 12.9248 27.2611 12.9248C27.2738 12.9248 27.2843 12.8996 27.2843 12.8688C27.2843 12.838 27.2948 12.8128 27.3076 12.8128C27.3204 12.8128 27.3487 12.7781 27.3706 12.7358C27.3924 12.6934 27.4166 12.6525 27.4243 12.6448C27.4579 12.6113 27.5083 12.502 27.5083 12.4628C27.5083 12.4393 27.5239 12.395 27.543 12.3644C27.5707 12.3201 27.5707 12.2974 27.543 12.2531C27.5239 12.2225 27.5083 12.1658 27.5083 12.1271C27.5083 12.0884 27.4966 12.0568 27.4822 12.0568C27.4679 12.0568 27.4481 12.0316 27.4383 12.0008C27.4285 11.97 27.4083 11.9448 27.3932 11.9448C27.3783 11.9448 27.3389 11.9196 27.3059 11.8888C27.2406 11.828 26.8923 11.8044 26.8923 11.8608ZM21.5023 15.2488C21.4928 15.2642 21.4535 15.2768 21.4148 15.2768C21.2039 15.2768 21.0964 15.4256 21.0963 15.7178C21.0963 15.8448 21.1059 15.9488 21.1177 15.9488C21.1294 15.9488 21.1515 15.9771 21.1667 16.0118C21.1819 16.0464 21.2227 16.0872 21.2573 16.1024C21.292 16.1176 21.3203 16.1397 21.3203 16.1514C21.3203 16.1632 21.5447 16.1728 21.8189 16.1728H22.3174L22.4139 16.0813C22.5947 15.9098 22.6491 15.6131 22.5243 15.4792C22.4935 15.4462 22.4683 15.4068 22.4683 15.3919C22.4683 15.3768 22.4431 15.3566 22.4123 15.3468C22.3815 15.337 22.3563 15.3172 22.3563 15.3029C22.3563 15.2885 22.313 15.2768 22.26 15.2768C22.207 15.2768 22.1558 15.2642 22.1463 15.2488C22.1365 15.2329 21.9972 15.2208 21.8243 15.2208C21.6514 15.2208 21.5121 15.2329 21.5023 15.2488ZM22.1199 16.7415C22.0899 16.7598 22.0403 16.7968 22.0095 16.8238C21.9789 16.8507 21.9372 16.8728 21.9171 16.8728C21.8968 16.8728 21.8803 16.8854 21.8803 16.9008C21.8803 16.9162 21.8579 16.9288 21.8305 16.9288C21.8031 16.9288 21.7625 16.954 21.7403 16.9848C21.7181 17.0156 21.6834 17.0408 21.6632 17.0408C21.5976 17.0408 21.4323 17.2305 21.4323 17.3059C21.4323 17.3449 21.4197 17.3768 21.4043 17.3768C21.3889 17.3768 21.3763 17.4209 21.3763 17.4748C21.3763 17.5287 21.3889 17.5728 21.4043 17.5728C21.4197 17.5728 21.4323 17.6048 21.4323 17.644C21.4323 17.7227 21.545 17.8528 21.6131 17.8528C21.6369 17.8528 21.6563 17.8654 21.6563 17.8808C21.6563 17.897 21.745 17.9088 21.8663 17.9088C21.9876 17.9088 22.0763 17.897 22.0763 17.8808C22.0763 17.8654 22.1015 17.8528 22.1323 17.8528C22.1631 17.8528 22.1883 17.8402 22.1883 17.8248C22.1883 17.8094 22.2107 17.7968 22.2382 17.7968C22.2655 17.7968 22.3061 17.7716 22.3283 17.7408C22.3505 17.71 22.3911 17.6848 22.4185 17.6848C22.4459 17.6848 22.4683 17.6722 22.4683 17.6568C22.4683 17.6414 22.4852 17.6288 22.5058 17.6288C22.5265 17.6288 22.6042 17.5714 22.6784 17.5012L22.8134 17.3737L22.8121 17.1619C22.8113 17.0453 22.7998 16.9421 22.7865 16.9324C22.7732 16.9227 22.7486 16.89 22.7319 16.8597C22.6568 16.724 22.2703 16.6493 22.1199 16.7415ZM26.5143 20.3877C22.59 20.8793 20.2699 24.9269 21.8524 28.5208C21.9587 28.762 21.9983 28.8381 22.1889 29.1652C22.7269 30.089 23.6282 30.9088 24.6596 31.4123C24.8668 31.5136 25.0234 31.6074 25.0324 31.6358C25.0426 31.6678 25.0767 31.6848 25.1302 31.6848C25.1754 31.6848 25.2123 31.6974 25.2123 31.7128C25.2123 31.7282 25.2501 31.7408 25.2963 31.7408C25.3425 31.7408 25.3803 31.7534 25.3803 31.7688C25.3803 31.7842 25.4181 31.7968 25.4643 31.7968C25.5105 31.7968 25.5483 31.8094 25.5483 31.8248C25.5483 31.8402 25.5917 31.8528 25.6446 31.8528C25.6976 31.8528 25.7488 31.8654 25.7583 31.8808C25.7678 31.8962 25.8306 31.9088 25.8976 31.9088C25.9704 31.9088 26.0244 31.9229 26.0313 31.9438C26.0404 31.971 26.2938 31.9788 27.1723 31.9788C28.0509 31.9788 28.3042 31.971 28.3133 31.9438C28.3203 31.9229 28.3743 31.9088 28.447 31.9088C28.5141 31.9088 28.5768 31.8962 28.5863 31.8808C28.5958 31.8654 28.647 31.8528 28.7 31.8528C28.753 31.8528 28.7963 31.8402 28.7963 31.8248C28.7963 31.8094 28.8341 31.7968 28.8803 31.7968C28.9265 31.7968 28.9643 31.7842 28.9643 31.7688C28.9643 31.7534 29.0021 31.7408 29.0483 31.7408C29.0945 31.7408 29.1323 31.7282 29.1323 31.7128C29.1323 31.6974 29.1693 31.6848 29.2144 31.6848C29.2678 31.6848 29.3022 31.6676 29.3127 31.6358C29.3221 31.6074 29.4851 31.5107 29.6996 31.4063C30.039 31.2409 30.6088 30.8855 30.7876 30.7275C30.8279 30.6919 30.903 30.6313 30.9546 30.5928C31.5154 30.1742 32.3623 29.0115 32.5597 28.3892C32.5704 28.3554 32.6038 28.3199 32.6337 28.3104C32.6715 28.2983 32.6883 28.2677 32.6883 28.2109C32.6883 28.1657 32.7009 28.1288 32.7163 28.1288C32.7317 28.1288 32.7443 28.091 32.7443 28.0448C32.7443 27.9986 32.7569 27.9608 32.7723 27.9608C32.7877 27.9608 32.8003 27.923 32.8003 27.8768C32.8003 27.8306 32.8129 27.7928 32.8283 27.7928C32.8437 27.7928 32.8563 27.7495 32.8563 27.6965C32.8563 27.6435 32.8689 27.5923 32.8843 27.5828C32.8997 27.5733 32.9123 27.5105 32.9123 27.4435C32.9123 27.3708 32.9265 27.3167 32.9473 27.3098C32.9746 27.3007 32.9823 27.0474 32.9823 26.1688C32.9823 25.2902 32.9746 25.0369 32.9473 25.0278C32.9265 25.0209 32.9123 24.9668 32.9123 24.8941C32.9123 24.827 32.8997 24.7643 32.8843 24.7548C32.8689 24.7453 32.8563 24.6941 32.8563 24.6411C32.8563 24.5881 32.8437 24.5448 32.8283 24.5448C32.8129 24.5448 32.8003 24.507 32.8003 24.4608C32.8003 24.4146 32.7877 24.3768 32.7723 24.3768C32.7569 24.3768 32.7443 24.339 32.7443 24.2928C32.7443 24.2466 32.7317 24.2088 32.7163 24.2088C32.7009 24.2088 32.6883 24.1718 32.6883 24.1267C32.6883 24.0698 32.6715 24.0392 32.6337 24.0272C32.6038 24.0177 32.5707 23.9822 32.5602 23.9484C32.5318 23.8558 32.2759 23.3463 32.1778 23.1868C32.0533 22.9842 31.9489 22.8249 31.9303 22.8088C31.9213 22.8011 31.8815 22.7462 31.8416 22.6868C31.7589 22.5636 31.2983 22.0389 31.199 21.9548C30.7722 21.5932 30.6156 21.4719 30.3658 21.3085C29.2176 20.5581 27.8207 20.2241 26.5143 20.3877ZM27.8286 21.1866C28.711 21.3417 29.3224 21.5707 29.9184 21.9692C32.5646 23.7384 32.9694 27.3861 30.7725 29.6642C29.1101 31.3881 26.41 31.6832 24.4143 30.359C23.2765 29.604 22.5084 28.4611 22.2475 27.1348C22.1724 26.753 22.1603 26.6189 22.1603 26.1688C22.1603 25.719 22.1722 25.5878 22.2473 25.2028C22.5485 23.6605 23.5682 22.34 24.9892 21.6522C25.4682 21.4203 25.824 21.3104 26.4863 21.19C26.6863 21.1536 27.6274 21.1513 27.8286 21.1866ZM26.6543 21.8313C26.5465 21.8431 26.389 21.8668 26.3043 21.8839C26.2196 21.9011 26.1092 21.9223 26.059 21.9311C26.0089 21.9398 25.9609 21.9582 25.9524 21.9719C25.944 21.9856 25.907 21.9968 25.8703 21.9968C25.8336 21.9968 25.7958 22.0094 25.7863 22.0248C25.7768 22.0402 25.7444 22.0528 25.7143 22.0528C25.6842 22.0528 25.6377 22.064 25.611 22.0777C25.5842 22.0914 25.4993 22.1308 25.4223 22.1653C25.3453 22.1997 25.251 22.2421 25.2127 22.2594C24.6815 22.4992 24.0118 23.0739 23.6101 23.6348C23.4963 23.7937 23.2243 24.2573 23.2243 24.2924C23.2243 24.3122 23.1754 24.4196 23.0808 24.6074C23.0673 24.6342 23.0563 24.6807 23.0563 24.7108C23.0563 24.7409 23.0437 24.7733 23.0283 24.7828C23.0129 24.7923 23.0003 24.8247 23.0003 24.8548C23.0003 24.8849 22.9888 24.9314 22.9748 24.9581C22.9608 24.9849 22.9345 25.0824 22.9165 25.1748C22.8985 25.2672 22.8692 25.3995 22.8514 25.4688C22.8053 25.6483 22.8084 26.6691 22.8557 26.8828C22.9562 27.3366 23.0126 27.5432 23.0871 27.7298C23.101 27.7644 23.1234 27.8211 23.1369 27.8558C23.5831 28.9999 24.7251 30.0173 25.9543 30.366C26.3366 30.4744 26.5843 30.3428 26.5843 30.0313C26.5843 29.7911 26.4986 29.7169 26.0523 29.5717C24.8665 29.1856 23.9002 28.1212 23.675 26.9528C23.6586 26.8681 23.6324 26.732 23.6168 26.6504C23.5796 26.4566 23.5802 25.85 23.6178 25.66C23.684 25.325 23.7094 25.2217 23.7726 25.0295C24.153 23.8724 25.2043 22.9204 26.3743 22.6733C26.7454 22.595 26.8374 22.5848 27.1723 22.5848C27.5073 22.5848 27.5993 22.595 27.9703 22.6733C29.7976 23.0591 31.0348 24.9238 30.7021 26.7907C30.5456 27.6694 29.976 28.5978 29.321 29.0421C29.2557 29.0864 29.196 29.1291 29.1883 29.137C29.0882 29.2395 28.6525 29.4497 28.2559 29.5869C27.8515 29.7267 27.7446 29.8583 27.8185 30.1256C27.8804 30.35 28.1851 30.4797 28.3977 30.3722C28.4244 30.3587 28.4967 30.3327 28.5583 30.3144C28.8677 30.2224 29.4795 29.9097 29.7343 29.7133C30.2868 29.2874 30.6272 28.9145 30.9262 28.4077C31.0435 28.2089 31.0828 28.1312 31.1909 27.8858C31.2689 27.7089 31.2831 27.6716 31.3184 27.5548C31.3369 27.4932 31.362 27.4176 31.3741 27.3868C31.3862 27.356 31.404 27.293 31.4137 27.2468C31.4234 27.2006 31.4435 27.1061 31.4584 27.0368C31.5461 26.6291 31.559 25.7265 31.4821 25.3944C31.4187 25.121 31.3953 25.0311 31.341 24.8528C31.3104 24.7527 31.2748 24.6456 31.2617 24.6148C31.1007 24.2343 31.0671 24.1658 30.9257 23.9298C30.4474 23.1315 29.6784 22.4638 28.8523 22.1296C28.8138 22.114 28.7571 22.0912 28.7263 22.0789C28.6955 22.0666 28.6199 22.0413 28.5583 22.0228C28.4967 22.0042 28.4211 21.9791 28.3903 21.967C28.3333 21.9446 28.2746 21.9308 28.0263 21.8816C27.6515 21.8072 27.0696 21.7859 26.6543 21.8313ZM26.3688 23.3473C26.2636 23.3811 26.2203 23.4778 26.2203 23.6794C26.2203 23.8634 26.1632 23.9008 25.8819 23.9008C25.5516 23.9008 25.5203 23.9356 25.5203 24.3039C25.5203 24.6638 25.5552 24.7128 25.8111 24.7128C26.1171 24.7128 26.1083 24.6677 26.1083 26.2468C26.1083 27.8746 26.1145 27.8488 25.7249 27.8488C25.538 27.8488 25.5203 27.8808 25.5203 28.2204C25.5203 28.5848 25.5357 28.6048 25.8165 28.6049C26.1217 28.6049 26.2027 28.6585 26.2203 28.8721C26.2445 29.1642 26.2802 29.1928 26.6221 29.1928C26.9809 29.1928 27.0323 29.1573 27.0323 28.9093C27.0323 28.5076 27.4126 28.5244 27.4544 28.928C27.4813 29.1878 27.4886 29.1928 27.8461 29.1928C28.2171 29.1928 28.2363 29.1769 28.2363 28.8708C28.2363 28.634 28.272 28.5714 28.4556 28.4864C28.8788 28.2903 29.1808 27.9079 29.2966 27.4214C29.3959 27.0042 29.2388 26.4879 28.9027 26.1268C28.8104 26.0275 28.8006 25.9064 28.8739 25.7706C28.9974 25.5419 29.0589 24.9362 28.9679 24.8452C28.9505 24.8278 28.9363 24.7971 28.9363 24.7769C28.9363 24.6319 28.6837 24.2954 28.4643 24.148C28.251 24.0047 28.2377 23.9774 28.237 23.6834L28.2363 23.4239L28.1453 23.3685C28.079 23.328 28.0043 23.313 27.8695 23.3129C27.536 23.3127 27.4523 23.3769 27.4523 23.6328C27.4523 23.7939 27.3697 23.9008 27.2452 23.9008C27.1112 23.9008 27.0323 23.8046 27.0323 23.6413C27.0323 23.3462 26.7548 23.2233 26.3688 23.3473ZM27.9544 24.7538C28.337 24.9516 28.2883 25.543 27.88 25.6571C27.718 25.7023 27.0185 25.6831 26.9674 25.6319C26.8172 25.4817 26.8232 24.8718 26.976 24.7487C27.0414 24.6961 27.8509 24.7003 27.9544 24.7538ZM28.1514 26.5436C28.5957 26.7856 28.6501 27.3827 28.2552 27.6822C27.9325 27.927 26.9874 27.9191 26.8976 27.6708C26.798 27.3955 26.8674 26.5847 26.9973 26.5058C27.089 26.4502 28.0369 26.4813 28.1514 26.5436ZM13.1443 29.1545C12.0479 29.2913 11.0728 29.851 10.4189 30.7188C10.2037 31.0043 10.0003 31.3623 9.96688 31.5141C9.95652 31.5614 9.93636 31.6074 9.92215 31.6161C9.88736 31.6377 9.88911 31.7408 9.92432 31.7408C9.93972 31.7408 9.95232 31.7609 9.95232 31.7856C9.95232 31.9758 10.5764 32.0908 10.6971 31.9228C10.7192 31.892 10.7561 31.8446 10.7789 31.8174C10.8016 31.7903 10.8203 31.7504 10.8203 31.7288C10.8203 31.7072 10.8361 31.683 10.8553 31.6753C10.8818 31.6645 10.8804 31.6541 10.8494 31.6326C10.7142 31.5386 11.3198 30.8145 11.8104 30.4834C13.2596 29.5055 15.2247 29.8836 16.1918 31.3265C16.3401 31.5479 16.3624 31.6119 16.3013 31.6405C16.2733 31.6535 16.2733 31.6601 16.3013 31.6731C16.3206 31.6821 16.3363 31.7136 16.3363 31.7431C16.3363 31.7726 16.3459 31.7968 16.3577 31.7968C16.3694 31.7968 16.3915 31.8249 16.4067 31.8593C16.4796 32.0243 17.0019 32.0575 17.1464 31.9064C17.2397 31.8088 17.2769 31.6863 17.2365 31.6102C17.2215 31.5819 17.1888 31.5006 17.1639 31.4296C16.6788 30.0473 14.7478 28.9544 13.1443 29.1545Z" fill="#050505"/>
<path fill-rule="evenodd" clip-rule="evenodd" d="M18.8973 7.71781L17.8067 8.80869L18.5904 9.59276C19.0214 10.024 19.3835 10.3737 19.3949 10.3698C19.4127 10.3638 20.6884 9.09779 21.3861 8.3938L21.6058 8.17204L20.8367 7.3984C20.4138 6.97287 20.0571 6.62476 20.0441 6.62476C20.0232 6.62476 20.5271 7.1527 21.2849 7.92487L21.5304 8.17498L20.4586 9.24745L19.3869 10.32L19.1286 10.0704C18.9866 9.93309 18.6385 9.59437 18.3552 9.31766L17.84 8.81457L18.9243 7.73118C19.5207 7.13527 20.004 6.6431 19.9983 6.63736C19.9926 6.63162 19.4971 7.11784 18.8973 7.71781ZM30.5457 11.7838L28.5166 13.8069L28.5822 13.8831C28.6799 13.9969 28.968 14.3047 29.2598 14.6071C29.6522 15.0138 29.7511 15.2835 29.6645 15.7108C29.6117 15.9714 29.5859 16.0922 29.5538 16.2288C29.5375 16.2981 29.5117 16.4178 29.4964 16.4948C29.481 16.5718 29.4555 16.6915 29.4395 16.7608C29.3655 17.0828 29.3668 17.0921 29.5252 17.349C29.6058 17.4798 29.6947 17.6269 29.7225 17.6759C29.7505 17.7249 29.8165 17.832 29.8692 17.9139C30.038 18.1757 30.4956 18.9276 30.5428 19.0204C30.6925 19.3148 30.4614 19.6411 30.1287 19.6051C29.9243 19.5831 29.8511 19.4946 29.4026 18.7278C29.2978 18.5487 29.3139 18.5487 29.0988 18.7272C28.7248 19.0376 28.5316 19.2098 28.3141 19.4264C28.0215 19.7176 27.6802 19.6616 27.566 19.3034C27.4895 19.0634 27.5906 18.933 28.3791 18.2548L28.8541 17.8462L28.782 17.7305C28.5187 17.3082 28.5026 17.1489 28.6548 16.4668C28.8577 15.5564 28.8748 15.4662 28.8547 15.4108C28.8245 15.3274 27.9661 14.4367 27.9161 14.4369C27.8997 14.437 27.6295 14.6946 27.3155 15.0094L26.7447 15.5817L26.7606 15.7022C26.7694 15.7685 26.7963 15.9735 26.8205 16.1577C26.9568 17.1979 26.7805 18.3347 26.4379 18.6242C25.9958 18.9979 25.4407 18.8444 25.116 18.2588C25.0304 18.1045 24.826 17.7789 24.7752 17.7163C24.7036 17.6278 24.6064 17.7205 21.1526 21.1738L17.684 24.6418L18.3262 25.2868C19.1725 26.1367 19.1592 26.1154 19.1834 26.6587L19.1984 26.9947L19.964 27.7647C20.3852 28.1882 20.7429 28.5702 20.759 28.6136C20.8607 28.8871 20.6731 29.1647 20.3864 29.1647C20.1976 29.1647 20.1872 29.1571 19.6518 28.6267L19.2012 28.1802L19.1828 28.5228C19.1726 28.7114 19.1644 29.0457 19.1644 29.2658C19.1644 29.8093 19.0912 29.9344 18.774 29.9333C18.3512 29.9318 18.3524 29.9371 18.3524 28.0494V26.484L15.9999 24.1287C14.5134 22.6405 13.6208 21.7669 13.5751 21.7554C13.5086 21.7387 13.1787 22.0613 9.55 25.689C6.5932 28.6451 5.58107 29.6407 5.53298 29.6407C5.357 29.6407 5.36036 29.6251 5.36036 30.452C5.36036 30.9241 5.37079 31.2119 5.38836 31.2227C5.40376 31.2323 5.41636 31.2603 5.41636 31.2852C5.41636 31.34 5.65338 31.5727 5.70917 31.5727C5.73115 31.5727 5.75684 31.5853 5.76636 31.6007C5.77763 31.619 6.50325 31.6287 7.85187 31.6287H9.92002L9.95362 31.5237C10.2161 30.7036 11.1122 29.8244 12.1084 29.4097C12.9671 29.0522 14.2236 29.0515 15.0484 29.4081C15.7339 29.7044 16.1893 30.0407 16.6743 30.6086C16.8708 30.8388 17.1516 31.3219 17.2061 31.5237L17.2345 31.6287H21.1114C23.345 31.6287 24.9884 31.6182 24.9884 31.604C24.9884 31.5903 24.9411 31.5572 24.8834 31.5304C24.7091 31.4495 24.4205 31.304 24.3164 31.2444C24.0464 31.09 23.9711 31.04 23.6797 30.8226C19.8004 27.9264 20.9377 21.9812 25.6464 20.5419C26.7205 20.2135 28.1823 20.3011 29.3552 20.7642C29.7638 20.9255 30.6022 21.4112 30.7564 21.5758C30.7641 21.584 30.8334 21.6405 30.9104 21.7013C31.298 22.0073 31.8477 22.6385 32.131 23.1028C32.2679 23.3272 32.5764 23.9362 32.5764 23.9821C32.5764 23.999 32.589 24.0128 32.6044 24.0128C32.623 24.0128 32.6324 21.6188 32.6324 16.8868C32.6324 12.0227 32.6232 9.76076 32.6036 9.76076C32.5877 9.76076 31.6617 10.6711 30.5457 11.7838ZM13.5462 13.9118C11.311 16.1486 9.46824 18.0063 9.45123 18.0399C9.25712 18.4242 9.66501 18.8871 10.0872 18.7617C10.2276 18.72 10.3324 18.6197 12.4853 16.4661C15.0964 13.8544 14.9406 13.9831 15.2625 14.1717L15.3835 14.2426L15.562 14.0667C15.6602 13.9699 15.8176 13.818 15.9118 13.7291C16.1471 13.5071 16.1612 13.4754 16.0851 13.34C15.9111 13.0305 15.8913 13.0585 17.2375 11.7118C17.8507 11.0984 18.3524 10.5816 18.3524 10.5632C18.3524 10.5233 17.6776 9.84475 17.6379 9.84475C17.6228 9.84475 15.7815 11.6749 13.5462 13.9118ZM32.5764 28.3536C32.5764 28.3695 32.503 28.5301 32.4133 28.7106C31.7979 29.9492 30.8999 30.8347 29.6382 31.4472C29.4832 31.5225 29.3564 31.5941 29.3564 31.6064C29.3564 31.6402 32.2334 31.6346 32.2544 31.6007C32.2639 31.5853 32.2962 31.5727 32.3261 31.5727C32.3559 31.5727 32.3804 31.5607 32.3804 31.546C32.3804 31.5113 32.5149 31.3767 32.5496 31.3767C32.5643 31.3767 32.5764 31.3523 32.5764 31.3224C32.5764 31.2925 32.589 31.2603 32.6044 31.2507C32.6224 31.2395 32.6324 30.7185 32.6324 29.7791C32.6324 28.8282 32.6227 28.3247 32.6044 28.3247C32.589 28.3247 32.5764 28.3377 32.5764 28.3536Z" fill="#667ED1"/>
<path fill-rule="evenodd" clip-rule="evenodd" d="M18.9292 7.72275L17.8401 8.81489L18.3552 9.31791C18.6386 9.59455 18.9865 9.93321 19.1286 10.0705L19.3869 10.3201L20.4586 9.24756L21.5303 8.17509L21.285 7.92498C21.15 7.78743 20.8098 7.43988 20.529 7.15275L20.0183 6.63062L18.9292 7.72275ZM26.5283 21.2272C26.1894 21.2736 25.7998 21.3653 25.5566 21.4557C25.452 21.4946 25.3413 21.5338 25.3107 21.5427C25.2 21.5749 24.5241 21.9253 24.4843 21.971C24.4766 21.9799 24.3884 22.0422 24.2883 22.1097C23.9051 22.3679 23.3714 22.9016 23.1132 23.2849C23.0457 23.385 22.9833 23.4732 22.9744 23.4809C22.9565 23.4965 22.9177 23.5633 22.7956 23.7889C22.7497 23.8736 22.7033 23.9555 22.6922 23.9709C22.6811 23.9863 22.6137 24.1501 22.5424 24.3349C21.7462 26.398 22.3196 28.5907 24.035 30.0429C24.1035 30.1009 24.1949 30.1692 24.238 30.1946C24.2811 30.2201 24.3163 30.2508 24.3163 30.2629C24.3163 30.275 24.3296 30.2849 24.3459 30.2849C24.3621 30.2849 24.4472 30.3332 24.5349 30.3922C24.9677 30.6838 25.5715 30.9259 26.2063 31.0626C26.8188 31.1944 27.8553 31.1673 28.1996 31.0105C28.352 30.941 28.9158 30.609 28.969 30.5573C28.9895 30.5374 29.0495 30.4906 29.1023 30.4535C29.3046 30.3112 29.9723 29.6615 29.9723 29.6071C29.9723 29.5856 29.8106 29.6857 29.7763 29.7283C29.7363 29.7782 29.3694 29.9932 29.1078 30.1201C28.3112 30.5066 28.0175 30.5324 27.8303 30.2324C27.7761 30.1454 27.7701 30.1432 27.6343 30.162C27.4565 30.1867 26.8855 30.1853 26.7383 30.1599C26.6358 30.1422 26.6224 30.1472 26.5798 30.2197C26.4116 30.5056 26.2005 30.518 25.5903 30.2782C24.79 29.9636 24.1679 29.4924 23.6213 28.7869C23.3574 28.4462 23.0571 27.8218 22.921 27.3309C22.8051 26.913 22.7903 26.7815 22.7903 26.1689C22.7903 25.479 22.8385 25.1786 23.0326 24.6569C23.161 24.312 23.5121 23.6529 23.6144 23.5649C23.6233 23.5572 23.6677 23.5005 23.713 23.4389C24.746 22.0344 26.8096 21.4161 28.566 21.9848C28.9193 22.0992 29.6821 22.4946 29.7763 22.6121C29.8034 22.6458 29.9723 22.7565 29.9723 22.7405C29.9723 22.675 29.3339 22.0466 29.104 21.8859C29.0503 21.8483 29 21.8103 28.9923 21.8012C28.944 21.7449 28.3934 21.4189 28.1671 21.3126C27.9181 21.1957 27.0775 21.1518 26.5283 21.2272Z" fill="#A3ACE4"/>
<path fill-rule="evenodd" clip-rule="evenodd" d="M14.2988 4.82839C14.2559 4.85562 14.2995 4.89874 14.4884 5.01585C14.601 5.08564 15.3495 5.63367 15.3844 5.67189C15.3921 5.68029 15.4471 5.72355 15.5068 5.768C15.7508 5.95 16.7407 6.78587 17.0224 7.04767C17.3302 7.33376 17.7373 7.68887 17.7575 7.68887C17.8259 7.68887 18.8682 6.59393 18.841 6.55074C18.8133 6.50671 18.4385 6.22622 18.3534 6.18576C18.3308 6.17505 18.2426 6.12017 18.1574 6.06375C17.3242 5.51257 16.2612 5.05155 15.4544 4.89146C15.023 4.80585 14.3888 4.7712 14.2988 4.82839ZM14.7264 4.86087C14.7359 4.87627 14.8556 4.88887 14.9924 4.88887C15.1292 4.88887 15.2489 4.90147 15.2584 4.91687C15.2679 4.93227 15.3317 4.94487 15.4001 4.94487C15.4685 4.94487 15.5244 4.95747 15.5244 4.97287C15.5244 4.98827 15.5748 5.00087 15.6364 5.00087C15.698 5.00087 15.7484 5.01347 15.7484 5.02887C15.7484 5.04427 15.7917 5.05687 15.8447 5.05687C15.8977 5.05687 15.9489 5.06947 15.9584 5.08487C15.9679 5.10027 16.0128 5.11287 16.0581 5.11287C16.1034 5.11287 16.1404 5.12547 16.1404 5.14087C16.1404 5.15627 16.1719 5.16887 16.2104 5.16887C16.2489 5.16887 16.2804 5.18147 16.2804 5.19687C16.2804 5.21227 16.3119 5.22487 16.3504 5.22487C16.3889 5.22487 16.4204 5.23747 16.4204 5.25287C16.4204 5.26827 16.4519 5.28087 16.4904 5.28087C16.5289 5.28087 16.5604 5.29347 16.5604 5.30887C16.5604 5.32427 16.5794 5.33687 16.6027 5.33687C16.6261 5.33687 16.6702 5.34947 16.7007 5.36487C16.7313 5.38027 16.7815 5.40547 16.812 5.42087C16.8426 5.43627 16.8867 5.44887 16.91 5.44887C16.9334 5.44887 16.9524 5.46147 16.9524 5.47687C16.9524 5.49227 16.9776 5.50487 17.0084 5.50487C17.0392 5.50487 17.0644 5.51747 17.0644 5.53287C17.0644 5.54827 17.0896 5.56087 17.1204 5.56087C17.1512 5.56087 17.1764 5.57347 17.1764 5.58887C17.1764 5.60427 17.2016 5.61687 17.2324 5.61687C17.2632 5.61687 17.2884 5.62947 17.2884 5.64487C17.2884 5.66027 17.3136 5.67287 17.3444 5.67287C17.3752 5.67287 17.4004 5.68449 17.4004 5.69863C17.4004 5.71284 17.4382 5.73272 17.4844 5.74287C17.5306 5.75302 17.5684 5.7729 17.5684 5.78711C17.5684 5.80125 17.5873 5.81287 17.6104 5.81287C17.6335 5.81287 17.6524 5.82547 17.6524 5.84087C17.6524 5.85627 17.6776 5.86887 17.7084 5.86887C17.7392 5.86887 17.7644 5.88147 17.7644 5.89687C17.7644 5.91227 17.7809 5.92487 17.8011 5.92487C17.8213 5.92487 17.8649 5.95007 17.898 5.98087C17.931 6.01167 17.9775 6.03687 18.0012 6.03687C18.0249 6.03687 18.0444 6.04737 18.0444 6.06011C18.0444 6.07292 18.079 6.10127 18.1214 6.12311C18.1637 6.14502 18.2228 6.18492 18.2526 6.21187C18.2825 6.23882 18.3235 6.26087 18.3436 6.26087C18.3639 6.26087 18.3804 6.27137 18.3804 6.28411C18.3804 6.29692 18.415 6.3252 18.4574 6.34697C18.4997 6.36867 18.5548 6.40864 18.5797 6.43566C18.6046 6.46275 18.6373 6.48487 18.6523 6.48487C18.6674 6.48487 18.701 6.50839 18.7271 6.53723C18.7826 6.59855 18.8036 6.5723 18.1732 7.22806C17.7285 7.69062 17.766 7.67319 17.5824 7.50211C17.3873 7.32025 17.1972 7.1477 16.9399 6.91887C16.8188 6.81107 16.7057 6.71027 16.6887 6.69487C16.5991 6.61367 16.4172 6.45785 16.2966 6.35887C16.2215 6.29727 16.1462 6.23406 16.1293 6.21845C16.1123 6.20284 16.0417 6.14621 15.9724 6.09252C15.9031 6.0389 15.8195 5.96981 15.7867 5.93894C15.7538 5.90807 15.6041 5.78837 15.4541 5.67287C15.304 5.55737 15.1265 5.40932 15.0595 5.34387C14.9926 5.27842 14.9249 5.22487 14.9092 5.22487C14.8933 5.22487 14.8804 5.21521 14.8804 5.20345C14.8804 5.19169 14.83 5.15095 14.7684 5.11287C14.7068 5.07479 14.6564 5.03552 14.6564 5.02565C14.6564 5.01578 14.6186 4.99198 14.5724 4.97287C14.4719 4.93122 14.468 4.91225 14.5514 4.87095C14.6339 4.83007 14.7048 4.82601 14.7264 4.86087ZM19.7797 6.81387L19.5704 7.03087L19.7804 6.83109C19.8959 6.72119 20.0093 6.62459 20.0324 6.61633C20.0692 6.6031 20.0691 6.601 20.0317 6.59911C20.0082 6.59785 19.8948 6.69452 19.7797 6.81387ZM19.0381 7.55587L18.5344 8.06687L19.0454 7.56315C19.3264 7.28609 19.5564 7.05614 19.5564 7.05215C19.5564 7.0322 19.5061 7.08113 19.0381 7.55587ZM18.156 8.43787L17.8064 8.79487L18.1634 8.44529C18.495 8.12056 18.5331 8.08087 18.513 8.08087C18.5089 8.08087 18.3483 8.24152 18.156 8.43787ZM21.5826 8.1564C21.5933 8.16711 21.5041 8.27736 21.3842 8.4014L21.1664 8.62687L21.396 8.4049C21.5951 8.21247 21.647 8.13687 21.5801 8.13687C21.5707 8.13687 21.5718 8.14562 21.5826 8.1564ZM20.6344 9.14487C20.4501 9.32967 20.3056 9.48087 20.3133 9.48087C20.321 9.48087 20.4781 9.32967 20.6624 9.14487C20.8467 8.96007 20.9912 8.80887 20.9835 8.80887C20.9758 8.80887 20.8187 8.96007 20.6344 9.14487ZM18.5764 9.60687C18.9997 10.0304 19.3523 10.3769 19.36 10.3769C19.3677 10.3769 19.0277 10.0304 18.6044 9.60687C18.1811 9.18337 17.8284 8.83687 17.8207 8.83687C17.813 8.83687 18.1531 9.18337 18.5764 9.60687ZM21.0472 9.88106C20.7506 10.1769 20.508 10.4298 20.5082 10.4432C20.5084 10.4645 20.7044 10.6889 21.0861 11.1048C21.2559 11.2898 21.6124 11.7004 21.8524 11.9876C21.9679 12.1258 22.0782 12.2556 22.0976 12.276C22.1169 12.2965 22.2174 12.4225 22.3208 12.556C22.4242 12.6896 22.5159 12.8052 22.5246 12.8129C22.5597 12.844 23.0287 13.4852 23.1633 13.6859C23.3368 13.9447 23.3526 13.9566 23.375 13.8449C23.4462 13.4891 23.3432 12.7333 23.1375 12.1022C23.0218 11.7475 23.0529 11.5772 23.2551 11.4577C23.3429 11.4059 23.362 11.3569 23.2944 11.3569C23.2713 11.3569 23.2524 11.3695 23.2524 11.3849C23.2524 11.4003 23.2326 11.4129 23.2084 11.4129C23.1518 11.4129 23.0844 11.4803 23.0844 11.5368C23.0844 11.5611 23.0718 11.5809 23.0564 11.5809C23.0399 11.5809 23.0284 11.6789 23.0284 11.8189C23.0284 11.9589 23.0399 12.0569 23.0564 12.0569C23.0718 12.0569 23.0844 12.0947 23.0844 12.1409C23.0844 12.1871 23.097 12.2249 23.1124 12.2249C23.1278 12.2249 23.1404 12.2627 23.1404 12.3089C23.1404 12.3551 23.1522 12.3929 23.1665 12.3929C23.1808 12.3929 23.2014 12.4939 23.2121 12.6175C23.2229 12.741 23.2427 12.8488 23.256 12.8571C23.2695 12.8654 23.2804 12.9526 23.2804 13.0509C23.2804 13.1491 23.293 13.2373 23.3084 13.2469C23.3373 13.2647 23.3489 13.7649 23.3204 13.7649C23.2898 13.7649 23.2244 13.6846 23.2244 13.6471C23.2244 13.6263 23.1992 13.5911 23.1684 13.5689C23.1376 13.5467 23.1124 13.5131 23.1124 13.4945C23.1124 13.4444 22.9101 13.1568 22.856 13.1299C22.8304 13.1172 22.6549 12.9116 22.4658 12.6729C22.2767 12.4342 22.1087 12.2245 22.0922 12.207C22.0758 12.1894 22.0435 12.1514 22.0204 12.1225C21.8756 11.9413 21.7213 11.7569 21.6844 11.7209C21.6607 11.6978 21.561 11.5844 21.4627 11.4689C21.2465 11.2148 20.9434 10.8774 20.7254 10.648C20.6368 10.5548 20.5644 10.4644 20.5644 10.447C20.5644 10.4061 21.1343 9.84487 21.1759 9.84487C21.1933 9.84487 21.3025 9.74981 21.4187 9.63361C21.6303 9.42207 21.7124 9.39666 21.7124 9.54268C21.7124 9.56347 21.7376 9.59868 21.7684 9.62087C21.7992 9.64306 21.8244 9.67421 21.8245 9.69003C21.8245 9.70592 21.8623 9.76297 21.9084 9.81687C21.9545 9.87077 21.9923 9.92957 21.9923 9.94756C21.9924 9.96548 22.0018 9.98438 22.0134 9.98956C22.0249 9.99467 22.0577 10.0448 22.0862 10.1009C22.1651 10.2563 22.2982 10.4049 22.3584 10.4049C22.3881 10.4049 22.4124 10.4175 22.4124 10.4329C22.4124 10.4484 22.4871 10.4609 22.5804 10.4609C22.6737 10.4609 22.7484 10.4484 22.7484 10.4329C22.7484 10.4175 22.7736 10.4049 22.8044 10.4049C22.8352 10.4049 22.8604 10.3908 22.8604 10.3736C22.8604 10.3542 22.8365 10.3496 22.7974 10.3614C22.5047 10.4499 22.3732 10.3912 22.1682 10.0805C22.0292 9.87 21.9321 9.72895 21.7407 9.45987C21.6241 9.296 21.6488 9.28102 21.0472 9.88106ZM19.738 10.0479L19.3744 10.4189L19.7454 10.0553C20.09 9.71754 20.1291 9.67687 20.109 9.67687C20.1049 9.67687 19.938 9.84382 19.738 10.0479ZM17.8053 11.1399L17.6664 11.2869L17.8134 11.1479C17.8942 11.0715 17.9604 11.0053 17.9604 11.0009C17.9604 10.9801 17.9344 11.0033 17.8053 11.1399ZM15.9576 11.4759L15.7624 11.6789L15.9654 11.4836C16.154 11.3023 16.1812 11.2729 16.1606 11.2729C16.1564 11.2729 16.065 11.3642 15.9576 11.4759ZM16.8806 12.0639L16.7984 12.1549L16.8894 12.0726C16.9394 12.0274 16.9804 11.9864 16.9804 11.9816C16.9804 11.96 16.9573 11.979 16.8806 12.0639ZM16.5446 12.3999L16.4624 12.4909L16.5534 12.4086C16.6382 12.332 16.6573 12.3089 16.6356 12.3089C16.6308 12.3089 16.5899 12.3498 16.5446 12.3999ZM14.8096 12.6239L14.6144 12.8269L14.8174 12.6316C15.006 12.4503 15.0332 12.4209 15.0126 12.4209C15.0084 12.4209 14.917 12.5122 14.8096 12.6239ZM13.6056 13.8279L13.4104 14.0309L13.6134 13.8356C13.725 13.7283 13.8164 13.6369 13.8164 13.6326C13.8164 13.6121 13.787 13.6393 13.6056 13.8279ZM14.3053 14.6399L14.1664 14.7869L14.3134 14.6479C14.3942 14.5715 14.4604 14.5053 14.4604 14.5009C14.4604 14.4801 14.4344 14.5033 14.3053 14.6399ZM12.4576 14.9759L12.2624 15.1789L12.4654 14.9836C12.654 14.8023 12.6812 14.7729 12.6606 14.7729C12.6564 14.7729 12.565 14.8642 12.4576 14.9759ZM28.5164 15.0336C28.5164 15.0384 28.5573 15.0794 28.6074 15.1246L28.6984 15.2069L28.6161 15.1159C28.5395 15.031 28.5164 15.012 28.5164 15.0336ZM11.3096 16.1239L11.1144 16.3269L11.3174 16.1316C11.506 15.9503 11.5332 15.9209 11.5126 15.9209C11.5084 15.9209 11.417 16.0122 11.3096 16.1239ZM12.0646 16.8799L11.9824 16.9709L12.0734 16.8886C12.1234 16.8434 12.1644 16.8024 12.1644 16.7976C12.1644 16.776 12.1413 16.795 12.0646 16.8799ZM28.552 17.0689C28.552 17.1382 28.5575 17.1665 28.5641 17.1319C28.5709 17.0972 28.5709 17.0405 28.5641 17.0059C28.5575 16.9712 28.552 16.9996 28.552 17.0689ZM10.1056 17.3279L9.9104 17.5309L10.1134 17.3356C10.2251 17.2283 10.3164 17.1369 10.3164 17.1326C10.3164 17.1121 10.287 17.1393 10.1056 17.3279ZM10.8607 18.0839L10.7784 18.1749L10.8694 18.0926C10.9542 18.016 10.9733 17.9929 10.9517 17.9929C10.9468 17.9929 10.9059 18.0338 10.8607 18.0839ZM26.5617 21.1807C26.5262 21.1907 26.801 21.1989 27.1724 21.1989C27.5438 21.1989 27.8186 21.1907 27.7831 21.1807C27.7475 21.1707 27.4727 21.1625 27.1724 21.1625C26.8721 21.1625 26.5973 21.1707 26.5617 21.1807ZM26.2064 21.2409L26.1504 21.2649L26.2064 21.2636C26.2372 21.2628 26.3002 21.2526 26.3464 21.2409L26.4304 21.2195L26.3464 21.2181C26.3002 21.2174 26.2372 21.2276 26.2064 21.2409ZM27.9984 21.2409C28.0446 21.2526 28.1076 21.2628 28.1384 21.2636L28.1944 21.2649L28.1384 21.2409C28.1076 21.2276 28.0446 21.2174 27.9984 21.2181L27.9144 21.2195L27.9984 21.2409ZM25.9544 21.2969L25.8984 21.3209H25.9544C25.9852 21.3209 26.0356 21.3101 26.0664 21.2969L26.1224 21.2728H26.0664C26.0356 21.2728 25.9852 21.2836 25.9544 21.2969ZM28.3904 21.3268C28.5944 21.3817 28.6477 21.3908 28.6233 21.3664C28.6014 21.3445 28.2963 21.2685 28.242 21.2714C28.2158 21.2728 28.2826 21.2977 28.3904 21.3268ZM25.7444 21.3529C25.6887 21.3888 25.7587 21.3888 25.8424 21.3529L25.8984 21.3288L25.8424 21.3272C25.8116 21.3264 25.7675 21.338 25.7444 21.3529ZM25.5764 21.4089C25.5391 21.433 25.5391 21.436 25.5764 21.436C25.5995 21.436 25.6373 21.4238 25.6604 21.4089C25.6977 21.3847 25.6977 21.3817 25.6604 21.3817C25.6373 21.3817 25.5995 21.394 25.5764 21.4089ZM28.6844 21.4089C28.7075 21.4238 28.7453 21.436 28.7684 21.436C28.8057 21.436 28.8057 21.433 28.7684 21.4089C28.7453 21.394 28.7075 21.3817 28.6844 21.3817C28.6471 21.3817 28.6471 21.3847 28.6844 21.4089ZM25.4084 21.4649C25.3711 21.489 25.3711 21.492 25.4084 21.492C25.4315 21.492 25.4693 21.4798 25.4924 21.4649C25.5297 21.4407 25.5297 21.4377 25.4924 21.4377C25.4693 21.4377 25.4315 21.45 25.4084 21.4649ZM28.8244 21.4465C28.8244 21.4517 28.9144 21.4913 29.0244 21.5344C30.2713 22.0237 31.3176 23.07 31.8069 24.3171C31.8501 24.4271 31.8909 24.5117 31.8976 24.505C31.918 24.4845 31.796 24.1828 31.659 23.9154C31.0987 22.8208 30.1704 21.9649 29.0492 21.5094C28.8795 21.4404 28.8244 21.425 28.8244 21.4465ZM24.9876 21.6509C23.9506 22.161 23.1596 22.9537 22.65 23.9935C22.5614 24.1745 22.4967 24.3305 22.5065 24.3403C22.5162 24.35 22.5389 24.315 22.5569 24.2624C22.8174 23.5014 23.5958 22.5585 24.4271 21.9971C24.6195 21.8672 25.2302 21.5489 25.2871 21.5489C25.3058 21.5489 25.3289 21.5363 25.3384 21.5209C25.3699 21.4699 25.312 21.4913 24.9876 21.6509ZM26.6544 21.7979C26.5928 21.8072 26.8259 21.8149 27.1724 21.8149C27.5189 21.8149 27.7457 21.8063 27.6764 21.796C27.5232 21.7729 26.8096 21.7743 26.6544 21.7979ZM26.3044 21.8569C26.2358 21.8788 26.2361 21.8793 26.3184 21.8816C26.3646 21.883 26.4213 21.8718 26.4444 21.8569C26.4975 21.8226 26.4115 21.8226 26.3044 21.8569ZM27.9004 21.8569C27.9235 21.8718 27.9802 21.883 28.0264 21.8816C28.1087 21.8793 28.109 21.8788 28.0404 21.8569C27.9333 21.8226 27.8473 21.8226 27.9004 21.8569ZM26.0664 21.9129L26.0104 21.9369L26.0664 21.9385C26.0972 21.9393 26.1413 21.9278 26.1644 21.9129C26.22 21.8769 26.1501 21.8769 26.0664 21.9129ZM28.1804 21.9129C28.2035 21.9278 28.2476 21.9393 28.2784 21.9385L28.3344 21.9369L28.2784 21.9129C28.1947 21.8769 28.1247 21.8769 28.1804 21.9129ZM23.0686 22.0319L22.9864 22.1229L23.0774 22.0406C23.1274 21.9954 23.1684 21.9544 23.1684 21.9496C23.1684 21.928 23.1453 21.947 23.0686 22.0319ZM25.8704 21.9689C25.8164 21.992 25.8166 21.993 25.8757 21.9949C25.9095 21.996 25.9449 21.9843 25.9544 21.9689C25.9748 21.9358 25.9475 21.9358 25.8704 21.9689ZM28.3877 21.9645C28.3965 21.9787 28.4385 21.997 28.481 22.005C28.5236 22.013 28.5899 22.0272 28.6284 22.0366C28.6852 22.0503 28.6826 22.0462 28.6144 22.015C28.4981 21.9617 28.3681 21.9328 28.3877 21.9645ZM25.7024 22.0249C25.6484 22.048 25.6486 22.049 25.7077 22.0509C25.7415 22.052 25.7769 22.0403 25.7864 22.0249C25.8068 21.9918 25.7795 21.9918 25.7024 22.0249ZM25.5204 22.0909C25.3897 22.1384 25.2459 22.2183 25.2886 22.2197C25.3073 22.2204 25.3676 22.1957 25.4224 22.1649C25.4772 22.1341 25.5399 22.1089 25.5616 22.1089C25.5833 22.1089 25.6089 22.0963 25.6184 22.0809C25.6393 22.0471 25.642 22.0468 25.5204 22.0909ZM28.7246 22.0779C28.7351 22.0949 28.7674 22.1089 28.7964 22.1089C28.8254 22.1089 28.8569 22.1215 28.8664 22.1369C28.8759 22.1523 28.905 22.1644 28.9311 22.1637C28.965 22.163 28.9585 22.152 28.9084 22.1252C28.7984 22.0664 28.7022 22.0417 28.7246 22.0779ZM25.1564 22.2587C24.8846 22.404 24.5571 22.6193 24.5224 22.6753C24.5106 22.6944 24.5634 22.6647 24.6397 22.6092C24.8072 22.4873 25.153 22.2769 25.1856 22.2769C25.1985 22.2769 25.2169 22.2643 25.2264 22.2489C25.2489 22.2125 25.2405 22.2137 25.1564 22.2587ZM29.1044 22.2329C29.1044 22.2386 29.1579 22.2709 29.2234 22.3047C29.6895 22.5456 30.2223 22.9863 30.5561 23.4071C30.7488 23.6501 30.821 23.7295 30.7883 23.6629C30.6671 23.4153 30.0694 22.8207 29.6731 22.5533C29.365 22.3454 29.1044 22.1986 29.1044 22.2329ZM26.6404 22.6173C26.3222 22.682 26.221 22.7074 26.0331 22.7692C24.9948 23.1105 24.114 23.9912 23.7727 25.0295C23.7095 25.2218 23.6841 25.3251 23.6179 25.66C23.5803 25.8501 23.5796 26.4566 23.6169 26.6505C23.6325 26.7321 23.6587 26.8682 23.6751 26.9529C23.9003 28.1213 24.8665 29.1857 26.0524 29.5718C26.4986 29.717 26.5844 29.7912 26.5844 30.0314C26.5844 30.1591 26.5478 30.2388 26.4444 30.3362C26.3789 30.398 26.3785 30.4002 26.4374 30.3705C26.562 30.3079 26.6405 30.1211 26.6186 29.9395C26.5977 29.7657 26.4776 29.671 26.1354 29.5586C25.9742 29.5057 25.8235 29.4535 25.8004 29.4427C25.7773 29.4318 25.6954 29.3938 25.6184 29.358C25.5414 29.3223 25.4258 29.2579 25.3614 29.215C25.297 29.172 25.2319 29.1369 25.2167 29.1369C25.2015 29.1369 25.1849 29.1267 25.1797 29.1143C25.1746 29.1018 25.1137 29.0529 25.0444 29.0057C24.8256 28.8566 24.4094 28.4284 24.294 28.2339C24.2689 28.1915 24.2384 28.1569 24.2264 28.1569C24.2143 28.1569 24.2044 28.1434 24.2044 28.1269C24.2044 28.1105 24.1689 28.0443 24.1255 27.9799C23.9765 27.7588 23.8293 27.4021 23.745 27.0576C23.5648 26.3215 23.6156 25.456 23.8746 24.8529C23.9756 24.6174 24.0519 24.467 24.1254 24.3578C24.1689 24.2934 24.2044 24.2337 24.2044 24.2252C24.2044 24.2071 24.225 24.1807 24.4459 23.9149C24.6605 23.6567 24.7696 23.5541 25.1637 23.2401C25.1908 23.2186 25.2201 23.2009 25.2287 23.2009C25.2372 23.2009 25.297 23.1654 25.3614 23.1219C25.4725 23.047 25.6141 22.9756 25.8747 22.8633C26.4497 22.6155 27.3088 22.5622 28.0124 22.7307C28.2862 22.7963 28.8279 23.0014 28.8804 23.0594C28.8881 23.0679 28.9227 23.0906 28.9574 23.1099C28.992 23.1291 29.0487 23.1606 29.0834 23.1799C29.118 23.1991 29.1527 23.2218 29.1604 23.2302C29.1681 23.2387 29.2185 23.276 29.2724 23.3131C29.4489 23.4349 29.7996 23.7789 29.9713 23.9989C30.1367 24.2107 30.1282 24.1982 30.2314 24.3839C30.2506 24.4185 30.2733 24.4532 30.2819 24.4609C30.2903 24.4686 30.3187 24.5221 30.3449 24.5799C30.371 24.6376 30.4109 24.7258 30.4336 24.7759C30.7976 25.5806 30.7973 26.7396 30.4327 27.5619C30.3316 27.7899 30.2962 27.8638 30.2819 27.8769C30.2733 27.8846 30.2506 27.9192 30.2314 27.9539C30.2121 27.9885 30.1806 28.0452 30.1614 28.0799C30.1421 28.1145 30.1195 28.1492 30.1111 28.1569C30.1026 28.1646 30.0651 28.215 30.0278 28.2689C29.8747 28.4901 29.4937 28.8711 29.2724 29.0243C29.2185 29.0616 29.1681 29.0991 29.1604 29.1075C29.1474 29.1217 29.0893 29.1563 28.9504 29.2322C28.9196 29.2491 28.8881 29.2698 28.8804 29.2783C28.8674 29.2927 28.7935 29.3281 28.5654 29.4292C28.5153 29.4514 28.375 29.5023 28.2535 29.5423C27.9409 29.6453 27.7885 29.7488 27.7884 29.8582C27.7884 29.8777 27.773 29.9183 27.7542 29.9484C27.6485 30.1175 27.9477 30.4279 28.2084 30.4199C28.3549 30.4153 28.3562 30.4146 28.2364 30.4056C27.9784 30.3862 27.8708 30.315 27.8197 30.1298C27.7446 29.8581 27.8496 29.7275 28.2559 29.587C28.6526 29.4498 29.0882 29.2396 29.1884 29.1371C29.1961 29.1292 29.2558 29.0865 29.321 29.0422C29.6909 28.7913 30.153 28.2306 30.3901 27.7453C31.3417 25.7967 30.357 23.4444 28.3064 22.7676C28.1192 22.7059 28.0158 22.6805 27.6812 22.6143C27.5031 22.5791 26.8182 22.581 26.6404 22.6173ZM24.2976 22.8428C24.2079 22.923 24.1291 22.9923 24.1227 22.9968C24.1163 23.0012 24.1163 23.0098 24.1227 23.016C24.1291 23.0221 24.2163 22.953 24.3164 22.8624C24.4165 22.7719 24.49 22.6976 24.4796 22.6974C24.4693 22.6971 24.3874 22.7625 24.2976 22.8428ZM23.8964 23.2366C23.7635 23.3859 23.6902 23.4809 23.7078 23.4809C23.7266 23.4809 24.043 23.1141 24.0325 23.1045C24.0269 23.0994 23.9657 23.1589 23.8964 23.2366ZM26.2676 23.3634C26.204 23.4298 26.1924 23.4665 26.1924 23.6014C26.1924 23.8339 26.1444 23.8729 25.8579 23.8729C25.5163 23.8729 25.4784 23.9158 25.4784 24.3022C25.4784 24.6777 25.5206 24.7409 25.772 24.7409C25.8922 24.7409 25.9445 24.7545 25.9911 24.798L26.0524 24.855V26.2387C26.0524 27.7906 26.0553 27.7649 25.8761 27.7649C25.5481 27.7649 25.4783 27.8496 25.4785 28.2479C25.4787 28.6157 25.5201 28.6609 25.8569 28.6609C26.1332 28.6609 26.1924 28.7067 26.1924 28.9208C26.1924 29.2045 26.325 29.2774 26.7753 29.2412C27.0078 29.2225 27.0604 29.1699 27.0604 28.9556C27.0604 28.8491 27.0764 28.788 27.1184 28.7346C27.2364 28.5846 27.3964 28.6722 27.3965 28.887C27.3965 29.1819 27.5174 29.2636 27.9227 29.2427C28.2329 29.2267 28.2676 29.1935 28.286 28.894C28.3032 28.614 28.3095 28.6037 28.5305 28.4949C29.4285 28.0528 29.6295 26.8497 28.9308 26.0989C28.8369 25.9979 28.8332 25.9331 28.9124 25.7725C29.0753 25.4421 29.1052 25.0751 28.993 24.7829C28.8786 24.4849 28.6921 24.2443 28.4577 24.0924C28.3023 23.9917 28.2979 23.9804 28.2861 23.6529C28.2744 23.3271 28.2237 23.2849 27.8444 23.2856C27.4854 23.2863 27.3964 23.3577 27.3964 23.6454C27.3964 23.8586 27.2628 23.9379 27.1291 23.8041C27.0731 23.7481 27.0604 23.7075 27.0604 23.584C27.0604 23.3345 26.9886 23.2849 26.6278 23.2849C26.3522 23.2849 26.3404 23.2875 26.2676 23.3634ZM26.8843 23.3423C26.9871 23.3781 27.0324 23.4695 27.0324 23.6414C27.0324 23.8047 27.1113 23.9009 27.2453 23.9009C27.3698 23.9009 27.4524 23.794 27.4524 23.6329C27.4524 23.377 27.536 23.3128 27.8696 23.3129C28.0044 23.3131 28.079 23.3281 28.1454 23.3686L28.2364 23.424L28.237 23.6834C28.2377 23.9775 28.251 24.0047 28.4644 24.148C28.6838 24.2955 28.9364 24.632 28.9364 24.777C28.9364 24.7971 28.9506 24.8279 28.968 24.8452C29.059 24.9362 28.9974 25.5419 28.874 25.7707C28.8007 25.9065 28.8105 26.0276 28.9028 26.1269C29.3966 26.6575 29.4591 27.3633 29.065 27.9609C28.9161 28.1867 28.6994 28.3736 28.4556 28.4865C28.2721 28.5715 28.2364 28.6341 28.2364 28.8709C28.2364 29.177 28.2171 29.1929 27.8462 29.1929C27.4887 29.1929 27.4814 29.1879 27.4544 28.9281C27.4127 28.5245 27.0324 28.5076 27.0324 28.9094C27.0324 29.1574 26.981 29.1929 26.6221 29.1929C26.2803 29.1929 26.2445 29.1643 26.2204 28.8722C26.2028 28.6586 26.1218 28.605 25.8166 28.6049C25.5358 28.6049 25.5204 28.5848 25.5204 28.2205C25.5204 27.8809 25.538 27.8489 25.725 27.8489C26.1146 27.8489 26.1084 27.8747 26.1084 26.2468C26.1084 24.6678 26.1171 24.7129 25.8112 24.7129C25.5553 24.7129 25.5204 24.6639 25.5204 24.304C25.5204 23.9357 25.5517 23.9009 25.8819 23.9009C26.1633 23.9009 26.2204 23.8635 26.2204 23.6795C26.2204 23.4779 26.2637 23.3812 26.3689 23.3474C26.489 23.3087 26.78 23.3059 26.8843 23.3423ZM23.6389 23.5579C23.5775 23.6291 23.3644 23.9506 23.3644 23.972C23.3644 23.982 23.3412 24.0236 23.3129 24.0645C23.2602 24.1408 23.2177 24.2369 23.2369 24.2369C23.2427 24.2369 23.2945 24.1518 23.352 24.0479C23.4094 23.9439 23.512 23.7801 23.5798 23.6839C23.6989 23.515 23.7264 23.4563 23.6389 23.5579ZM30.8862 23.8659C30.9282 23.939 30.9831 24.0304 31.0085 24.0689C31.0581 24.1445 31.1099 24.256 31.2618 24.6149C31.2749 24.6457 31.3105 24.7528 31.341 24.8529C31.3954 25.0312 31.4188 25.1211 31.4822 25.3945C31.5603 25.732 31.5461 26.6269 31.4558 27.0509C31.4393 27.1279 31.4203 27.2287 31.4134 27.2749L31.401 27.3589L31.429 27.2749C31.7492 26.314 31.5312 24.8249 30.9319 23.8799C30.8156 23.6965 30.7836 23.6867 30.8862 23.8659ZM23.1279 24.4344C23.0858 24.5283 23.0585 24.6123 23.0672 24.621C23.0759 24.6297 23.0908 24.613 23.1004 24.5839C23.1098 24.5547 23.1436 24.4772 23.1755 24.4117C23.2073 24.3461 23.2269 24.286 23.219 24.2781C23.211 24.2702 23.1701 24.3405 23.1279 24.4344ZM22.4544 24.4329C22.4439 24.466 22.4416 24.4994 22.4493 24.5071C22.457 24.5148 22.4719 24.494 22.4824 24.4609C22.4929 24.4278 22.4952 24.3944 22.4875 24.3867C22.4798 24.379 22.4649 24.3998 22.4544 24.4329ZM22.3984 24.6009C22.3879 24.634 22.3856 24.6674 22.3933 24.6751C22.401 24.6828 22.4159 24.662 22.4264 24.6289C22.4369 24.5958 22.4392 24.5624 22.4315 24.5547C22.4238 24.547 22.4089 24.5678 22.3984 24.6009ZM31.9052 24.5729C31.9052 24.596 31.9175 24.6338 31.9324 24.6569C31.9565 24.6942 31.9596 24.6942 31.9596 24.6569C31.9596 24.6338 31.9473 24.596 31.9324 24.5729C31.9082 24.5356 31.9052 24.5356 31.9052 24.5729ZM23.0316 24.6756C23.0299 24.6935 23.0203 24.7313 23.0103 24.7596C22.9962 24.7994 23 24.8037 23.0269 24.7788C23.046 24.7612 23.0556 24.7234 23.0483 24.6948C23.0409 24.6662 23.0334 24.6576 23.0316 24.6756ZM22.3475 24.7516C22.337 24.779 22.3292 24.8225 22.3301 24.8482C22.3313 24.8791 22.3411 24.872 22.359 24.8272C22.3738 24.7901 22.3817 24.7466 22.3763 24.7306C22.371 24.7148 22.3581 24.7241 22.3475 24.7516ZM26.976 24.7488C26.8232 24.8719 26.8173 25.4817 26.9675 25.632C27.0186 25.6831 27.7181 25.7024 27.8801 25.6572C28.2883 25.5431 28.3371 24.9517 27.9544 24.7539C27.851 24.7003 27.0414 24.6961 26.976 24.7488ZM31.9628 24.7409C31.9636 24.764 31.9752 24.8081 31.9884 24.8389L32.0125 24.8949L32.014 24.8389C32.0149 24.8081 32.0033 24.764 31.9884 24.7409C31.9642 24.7036 31.9614 24.7036 31.9628 24.7409ZM27.9083 24.7822C28.2552 24.9271 28.278 25.4025 27.9467 25.5794C27.7987 25.6584 27.0579 25.6665 26.9814 25.5898C26.9048 25.5132 26.9123 24.844 26.9904 24.785C27.0696 24.7251 27.7667 24.7229 27.9083 24.7822ZM22.9756 24.8436C22.9739 24.8615 22.9643 24.8993 22.9543 24.9276C22.9402 24.9674 22.944 24.9717 22.9709 24.9468C22.99 24.9292 22.9996 24.8914 22.9923 24.8628C22.9849 24.8342 22.9774 24.8256 22.9756 24.8436ZM32.0261 24.9859C32.0349 25.0282 32.0578 25.1448 32.0767 25.2449C32.0956 25.345 32.1159 25.405 32.1217 25.3782C32.1335 25.3243 32.0473 24.9089 32.0243 24.9089C32.0164 24.9089 32.0172 24.9435 32.0261 24.9859ZM22.2915 24.9756C22.281 25.003 22.2732 25.0465 22.2741 25.0722C22.2753 25.1031 22.2851 25.096 22.303 25.0512C22.3178 25.0141 22.3257 24.9706 22.3203 24.9546C22.315 24.9388 22.3021 24.9481 22.2915 24.9756ZM22.9024 25.1049C22.8918 25.1532 22.8894 25.1992 22.8971 25.2069C22.9048 25.2146 22.9198 25.1812 22.9304 25.1329C22.941 25.0845 22.9434 25.0386 22.9357 25.0309C22.928 25.0232 22.913 25.0565 22.9024 25.1049ZM22.2357 25.2176C22.2255 25.2557 22.2183 25.3184 22.2196 25.3569C22.2214 25.4071 22.2293 25.3959 22.2478 25.3168C22.2762 25.1955 22.2654 25.1066 22.2357 25.2176ZM22.8477 25.3518C22.8362 25.4183 22.8336 25.4794 22.8418 25.4876C22.8622 25.508 22.8972 25.313 22.8814 25.2673C22.8744 25.2473 22.8593 25.2853 22.8477 25.3518ZM22.1779 25.5844C22.1552 25.6979 22.1605 26.6952 22.1842 26.7794C22.1942 26.8149 22.2024 26.5408 22.2024 26.1704C22.2024 25.8 22.2009 25.4969 22.1989 25.4969C22.1969 25.4969 22.1876 25.5363 22.1779 25.5844ZM32.1424 26.1689C32.1424 26.5403 32.1506 26.8151 32.1606 26.7795C32.1706 26.744 32.1788 26.4692 32.1788 26.1689C32.1788 25.8686 32.1706 25.5937 32.1606 25.5582C32.1506 25.5226 32.1424 25.7974 32.1424 26.1689ZM22.7945 25.6999C22.7714 25.8926 22.7743 26.517 22.799 26.6559C22.8096 26.7159 22.8184 26.4923 22.8184 26.1589C22.8184 25.484 22.819 25.496 22.7945 25.6999ZM19.1743 26.7149C19.1743 26.8535 19.179 26.9137 19.1848 26.8487C19.1907 26.7837 19.1908 26.6703 19.185 26.5967C19.1792 26.5231 19.1744 26.5763 19.1743 26.7149ZM26.9974 26.5059C26.8675 26.5847 26.7981 27.3955 26.8977 27.6709C26.9875 27.9191 27.9326 27.9271 28.2553 27.6823C28.6502 27.3828 28.5958 26.7856 28.1515 26.5437C28.037 26.4813 27.089 26.4503 26.9974 26.5059ZM28.1446 26.5913C28.5729 26.8279 28.6015 27.4044 28.1982 27.6739L28.0621 27.7649H27.5367C26.8766 27.7649 26.9344 27.8239 26.9344 27.1489C26.9344 26.7464 26.9433 26.6148 26.9728 26.5791C27.0376 26.5012 27.9994 26.5112 28.1446 26.5913ZM22.8372 26.8969C22.8385 27.0124 22.8826 27.1318 22.8836 27.0229C22.8841 26.9767 22.8736 26.9137 22.8604 26.8829C22.8385 26.832 22.8364 26.8332 22.8372 26.8969ZM22.2216 26.9949C22.2209 27.0411 22.2312 27.1041 22.2444 27.1349L22.2685 27.1909L22.2671 27.1349C22.2664 27.1041 22.2562 27.0411 22.2444 26.9949L22.223 26.9109L22.2216 26.9949ZM32.0851 27.0496C32.0744 27.121 32.0725 27.1863 32.0809 27.1947C32.0893 27.2031 32.1049 27.1516 32.1157 27.0801C32.1264 27.0087 32.1283 26.9434 32.1199 26.935C32.1115 26.9266 32.0958 26.9781 32.0851 27.0496ZM22.8923 27.1629C22.8923 27.1937 22.9032 27.2441 22.9164 27.2749L22.9405 27.3309V27.2749C22.9405 27.2441 22.9296 27.1937 22.9164 27.1629L22.8923 27.1069V27.1629ZM22.2763 27.2749C22.2763 27.3057 22.2872 27.3561 22.3004 27.3869L22.3245 27.4429V27.3869C22.3245 27.3561 22.3136 27.3057 22.3004 27.2749L22.2763 27.2189V27.2749ZM32.0304 27.3169C32.0198 27.3652 32.0174 27.4112 32.0251 27.4189C32.0328 27.4266 32.0478 27.3932 32.0584 27.3449C32.069 27.2965 32.0714 27.2506 32.0637 27.2429C32.056 27.2352 32.041 27.2685 32.0304 27.3169ZM22.9468 27.3729C22.9476 27.396 22.9592 27.4401 22.9724 27.4709L22.9965 27.5269L22.998 27.4709C22.9989 27.4401 22.9873 27.396 22.9724 27.3729C22.9482 27.3356 22.9454 27.3356 22.9468 27.3729ZM31.363 27.4039C31.3078 27.6051 31.2785 27.6872 31.191 27.8859C31.0829 28.1313 31.0435 28.2089 30.9263 28.4077C30.6658 28.8493 30.3234 29.2445 29.9351 29.5521C29.6706 29.7615 29.6031 29.826 29.7484 29.7304C30.1503 29.4661 30.655 28.9241 30.9401 28.4509C31.1408 28.1179 31.4318 27.423 31.3888 27.3799C31.3804 27.3716 31.3689 27.3824 31.363 27.4039ZM22.3308 27.4989C22.3299 27.5297 22.3415 27.5738 22.3564 27.5969C22.3924 27.6525 22.3924 27.5826 22.3564 27.4989L22.3323 27.4429L22.3308 27.4989ZM31.9519 27.6128C31.9248 27.7006 31.9081 27.7779 31.9147 27.7845C31.9322 27.802 32.0228 27.5181 32.0111 27.4828C32.0055 27.4664 31.9789 27.5249 31.9519 27.6128ZM22.3852 27.6809C22.3852 27.704 22.3975 27.7418 22.4124 27.7649C22.4365 27.8022 22.4396 27.8022 22.4396 27.7649C22.4396 27.7418 22.4273 27.704 22.4124 27.6809C22.3882 27.6436 22.3852 27.6436 22.3852 27.6809ZM22.4412 27.8489C22.4412 27.872 22.4535 27.9098 22.4684 27.9329C22.4925 27.9702 22.4956 27.9702 22.4956 27.9329C22.4956 27.9098 22.4833 27.872 22.4684 27.8489C22.4442 27.8116 22.4412 27.8116 22.4412 27.8489ZM31.8069 28.0206C31.4645 28.8932 30.8533 29.6691 30.0605 30.2375C29.748 30.4616 29.3722 30.6668 29.0242 30.8034C28.9141 30.8465 28.8296 30.8874 28.8363 30.8941C28.8537 30.9116 29.1134 30.8112 29.3427 30.6984C30.3556 30.1999 31.1473 29.4219 31.659 28.4224C31.796 28.1549 31.918 27.8532 31.8976 27.8328C31.8909 27.826 31.8501 27.9106 31.8069 28.0206ZM22.4967 28.0082C22.4991 28.2236 23.1417 29.2174 23.5583 29.65C24.0178 30.1274 25.239 30.9396 25.342 30.8365C25.3521 30.8265 25.3366 30.8104 25.3074 30.801C24.687 30.5999 23.7823 29.9256 23.2741 29.2856C22.9874 28.9246 22.5524 28.1838 22.5524 28.0568C22.5524 28.0366 22.5398 28.0124 22.5244 28.0029C22.509 27.9933 22.4965 27.9957 22.4967 28.0082ZM23.2446 28.1499C23.347 28.4224 24.0862 29.4045 24.1447 29.3459C24.1516 29.339 24.1206 29.2983 24.0758 29.2554C23.8449 29.0345 23.4628 28.5189 23.3083 28.2199C23.2457 28.0989 23.2111 28.0608 23.2446 28.1499ZM19.1742 28.4089C19.1742 28.5398 19.179 28.5933 19.1849 28.5279C19.1908 28.4624 19.1908 28.3553 19.1849 28.2899C19.179 28.2244 19.1742 28.278 19.1742 28.4089ZM19.3592 28.3319C19.4753 28.4555 19.5004 28.4777 19.5004 28.4567C19.5004 28.4522 19.4405 28.3923 19.3674 28.3237L19.2344 28.1989L19.3592 28.3319ZM19.8079 28.7799C19.9693 28.9454 20.1048 29.0809 20.1089 29.0809C20.1291 29.0809 20.095 29.045 19.8154 28.7724L19.5144 28.4789L19.8079 28.7799ZM24.1781 29.3791C24.1854 29.4841 25.0624 30.064 25.4188 30.1995C25.5676 30.256 25.4855 30.2039 25.2247 30.0762C24.9237 29.9288 24.5774 29.7017 24.3374 29.4944C24.2488 29.4179 24.1772 29.366 24.1781 29.3791ZM29.4544 29.8963C29.3774 29.9428 29.215 30.0301 29.0935 30.0901C28.8613 30.2049 28.787 30.2523 28.9167 30.203C29.1169 30.1269 29.6084 29.8547 29.6084 29.8199C29.6084 29.8035 29.6059 29.8047 29.4544 29.8963ZM13.2564 29.9489C12.5678 30.022 11.9224 30.3219 11.4068 30.8083C11.0695 31.1264 10.7277 31.6289 10.8484 31.6289C10.8638 31.6289 10.8764 31.6067 10.8764 31.5796C10.8764 31.3453 11.7077 30.5222 12.1294 30.3388C12.1795 30.317 12.2204 30.2897 12.2204 30.278C12.2204 30.2664 12.2394 30.2569 12.2627 30.2569C12.2861 30.2569 12.3333 30.2423 12.3677 30.2245C12.5022 30.1549 12.5295 30.1449 12.5824 30.1449C12.6125 30.1449 12.644 30.1337 12.6524 30.1201C12.6608 30.1064 12.7088 30.0871 12.759 30.077C12.8093 30.067 12.9134 30.0455 12.9904 30.0292C13.2095 29.9831 13.8361 29.9679 14.0263 30.0042C14.3802 30.0716 14.6339 30.1461 14.803 30.2322C14.8298 30.2457 14.8707 30.2569 14.894 30.2569C14.9174 30.2569 14.9364 30.2695 14.9364 30.2849C14.9364 30.3003 14.9616 30.3129 14.9924 30.3129C15.0232 30.3129 15.0484 30.3255 15.0484 30.3409C15.0484 30.3563 15.0616 30.3689 15.0777 30.3689C15.1969 30.3689 15.9461 31.0061 16.0665 31.2098C16.0928 31.2544 16.1298 31.307 16.1488 31.3268C16.1677 31.3466 16.2145 31.4231 16.2528 31.4966C16.2911 31.5702 16.3263 31.6118 16.3312 31.589C16.3464 31.5173 16.0569 31.1205 15.8068 30.8704C15.1234 30.1871 14.19 29.8498 13.2564 29.9489ZM23.0424 30.2849C23.1025 30.3465 23.158 30.3969 23.1657 30.3969C23.1734 30.3969 23.1305 30.3465 23.0704 30.2849C23.0103 30.2233 22.9548 30.1729 22.9471 30.1729C22.9394 30.1729 22.9823 30.2233 23.0424 30.2849ZM25.6659 30.2949C25.7536 30.3327 25.867 30.3712 25.9179 30.3803C26.0242 30.3995 25.9793 30.3768 25.7584 30.2998C25.5359 30.2224 25.4925 30.22 25.6659 30.2949ZM28.5724 30.3129C28.5493 30.3278 28.5028 30.3402 28.4691 30.3404C28.4353 30.3407 28.3996 30.354 28.3897 30.37C28.3779 30.3892 28.3989 30.3924 28.451 30.3794C28.5647 30.3512 28.7061 30.2872 28.6564 30.2864C28.6333 30.2861 28.5955 30.298 28.5724 30.3129ZM26.1014 30.4333C26.1601 30.4511 26.2247 30.4515 26.2834 30.4342C26.3641 30.4104 26.3537 30.4072 26.1924 30.4065C26.0304 30.4057 26.0204 30.4086 26.1014 30.4333ZM25.4084 30.8729C25.4315 30.8878 25.4693 30.9 25.4924 30.9C25.5297 30.9 25.5297 30.897 25.4924 30.8729C25.4693 30.858 25.4315 30.8457 25.4084 30.8457C25.3711 30.8457 25.3711 30.8487 25.4084 30.8729ZM25.6284 30.9464C25.6801 30.969 25.762 30.9934 25.8104 31.0007C25.8656 31.009 25.841 30.9931 25.7444 30.9582C25.5665 30.8938 25.4899 30.886 25.6284 30.9464ZM28.5864 30.9606C28.4845 30.999 28.4703 31.0098 28.5344 31.0004C28.632 30.9861 28.835 30.9047 28.7684 30.9067C28.7453 30.9073 28.6634 30.9316 28.5864 30.9606ZM25.9544 31.0409C25.9852 31.0541 26.0356 31.0649 26.0664 31.0649H26.1224L26.0664 31.0409C26.0356 31.0276 25.9852 31.0168 25.9544 31.0168H25.8984L25.9544 31.0409ZM28.2784 31.0409L28.2224 31.0649H28.2784C28.3092 31.0649 28.3596 31.0541 28.3904 31.0409L28.4464 31.0168H28.3904C28.3596 31.0168 28.3092 31.0276 28.2784 31.0409ZM26.1784 31.0969C26.2092 31.1101 26.2722 31.1205 26.3184 31.1201C26.4003 31.1193 26.4006 31.1187 26.3324 31.0969C26.2297 31.064 26.1018 31.064 26.1784 31.0969ZM28.0124 31.0969L27.9424 31.1193H28.0124C28.0509 31.1193 28.1139 31.1092 28.1524 31.0969L28.2224 31.0745H28.1524C28.1139 31.0745 28.0509 31.0845 28.0124 31.0969ZM26.5564 31.153C26.6246 31.1747 27.0813 31.1909 27.0581 31.1708C27.0516 31.1652 26.9204 31.1539 26.7664 31.1457C26.612 31.1375 26.5178 31.1408 26.5564 31.153ZM27.4944 31.1529L27.2984 31.171L27.5084 31.1731C27.6239 31.1743 27.7499 31.1652 27.7884 31.1529C27.8763 31.1247 27.7992 31.1247 27.4944 31.1529Z" fill="#8B4B24"/>
</svg>
