<svg width="22" height="16" viewBox="0 0 22 16" fill="none" xmlns="http://www.w3.org/2000/svg">
<path fill-rule="evenodd" clip-rule="evenodd" d="M2.21627 8C2.79391 8.79665 3.9778 10.2978 5.53673 11.6047C7.15313 12.9598 9.04586 14 11 14C12.9542 14 14.847 12.9598 16.4634 11.6047C18.0223 10.2978 19.2062 8.79665 19.7838 8C19.2062 7.20335 18.0223 5.70224 16.4634 4.39529C14.847 3.04015 12.9542 2 11 2C9.04586 2 7.15313 3.04015 5.53673 4.39529C3.9778 5.70224 2.79391 7.20335 2.21627 8ZM4.25181 2.86265C6.01354 1.38568 8.35633 0 11 0C13.6438 0 15.9865 1.38568 17.7483 2.86264C19.5271 4.35393 20.8432 6.04714 21.4514 6.893C21.9297 7.55837 21.9297 8.44163 21.4514 9.107C20.8432 9.95286 19.5271 11.6461 17.7483 13.1374C15.9865 14.6143 13.6438 16 11 16C8.35633 16 6.01354 14.6143 4.25181 13.1374C2.473 11.6461 1.15685 9.95286 0.548717 9.107C0.0703499 8.44163 0.070349 7.55837 0.548717 6.893C1.15685 6.04714 2.473 4.35393 4.25181 2.86265Z" fill="#040921"/>
<path fill-rule="evenodd" clip-rule="evenodd" d="M11 10C12.1046 10 13 9.10457 13 8C13 6.89543 12.1046 6 11 6C9.89547 6 9.00004 6.89543 9.00004 8C9.00004 9.10457 9.89547 10 11 10ZM11 12C13.2092 12 15 10.2091 15 8C15 5.79086 13.2092 4 11 4C8.7909 4 7.00004 5.79086 7.00004 8C7.00004 10.2091 8.7909 12 11 12Z" fill="#040921"/>
</svg>
