<svg width="19" height="19" viewBox="0 0 19 19" fill="none" xmlns="http://www.w3.org/2000/svg">
<g clip-path="url(#clip0_2584_4800)">
<path d="M13.6032 3.51803H6.22534L6.42422 0.86377H13.6032V3.51803H13.6032Z" fill="#7F4AFF"/>
<path d="M8.17198 8.28769L5.23576 2.8486C4.8726 2.21192 5.09426 1.40139 5.7308 1.03819C6.36744 0.675271 7.17797 0.897036 7.5412 1.53322L10.9414 7.78566C11.2295 8.29047 9.86851 9.31573 9.44091 9.24208C9.01326 9.16842 8.60925 9.09512 8.17198 8.28769Z" fill="#A97DFF"/>
<path d="M9.89763 11.1517C8.61352 11.1517 7.56885 10.107 7.56885 8.82293C7.56885 7.53881 8.61352 6.49414 9.89763 6.49414C11.1817 6.49414 12.2264 7.53884 12.2264 8.82293C12.2264 10.107 11.1817 11.1517 9.89763 11.1517ZM9.89763 7.21801C9.01268 7.21801 8.29275 7.93797 8.29275 8.82293C8.29275 9.70788 9.01272 10.4278 9.89763 10.4278C10.7826 10.4278 11.5025 9.70788 11.5025 8.82293C11.5025 7.93797 10.7826 7.21801 9.89763 7.21801Z" fill="#C6C6C6"/>
<path d="M14 14.034C14 16.2996 12.1634 18.1363 9.89772 18.1363C7.63208 18.1363 5.79541 16.2996 5.79541 14.034C5.79541 11.7683 7.63208 9.93164 9.89772 9.93164C12.1634 9.93164 14 11.7683 14 14.034Z" fill="#FFD60D"/>
<path d="M9.75735 15.8551L8.5254 16.5028C8.30431 16.619 8.04587 16.4313 8.0881 16.1851L8.32336 14.8133C8.33162 14.7651 8.32805 14.7157 8.31295 14.6692C8.29784 14.6227 8.27166 14.5806 8.23667 14.5465L7.24002 13.575C7.06115 13.4006 7.15987 13.0968 7.40705 13.0609L8.7844 12.8608C8.83276 12.8537 8.87869 12.8351 8.91822 12.8063C8.95775 12.7776 8.98971 12.7397 9.01133 12.6959L9.62731 11.4478C9.73787 11.2238 10.0573 11.2238 10.1678 11.4478L10.7838 12.6959C10.8054 12.7397 10.8374 12.7776 10.8769 12.8063C10.9165 12.835 10.9624 12.8537 11.0107 12.8608L12.3881 13.0609C12.6353 13.0968 12.734 13.4006 12.5551 13.575L11.5585 14.5465C11.5235 14.5806 11.4973 14.6227 11.4822 14.6692C11.4671 14.7157 11.4635 14.7651 11.4718 14.8133L11.707 16.1851C11.7493 16.4313 11.4909 16.619 11.2697 16.5028L10.0378 15.8551C9.99455 15.8323 9.94643 15.8205 9.89757 15.8205C9.84872 15.8205 9.80059 15.8323 9.75735 15.8551Z" fill="#FFE780"/>
<path d="M4.8664 11.3724C5.67454 11.1677 6.31069 10.5315 6.51541 9.72334C6.5351 9.64561 6.63511 9.64561 6.6548 9.72334C6.85952 10.5315 7.49567 11.1677 8.30381 11.3724C8.38154 11.3921 8.38154 11.4921 8.30381 11.5118C7.49567 11.7164 6.85952 12.3526 6.6548 13.1607C6.63511 13.2384 6.5351 13.2384 6.51541 13.1607C6.31069 12.3526 5.67454 11.7165 4.8664 11.5118C4.78867 11.4921 4.78867 11.3921 4.8664 11.3724Z" fill="#A4ECF4"/>
<path d="M14.7373 2.87903L11.331 8.64772C11.234 8.80605 11.1039 8.94149 10.9495 9.04475C10.7952 9.148 10.6203 9.21661 10.437 9.24587H9.58165L9.3198 8.41558L9.34062 8.41266C8.98107 8.15131 8.75094 7.86159 8.88938 7.63564L12.4442 1.54113C12.8063 0.950046 13.5618 0.686901 14.1847 0.991249C14.8991 1.34039 15.1428 2.21736 14.7373 2.87903Z" fill="#A97DFF"/>
</g>
<defs>
<clipPath id="clip0_2584_4800">
<rect width="18" height="18" fill="white" transform="translate(0.870605 0.5)"/>
</clipPath>
</defs>
</svg>
