<svg width="27" height="27" viewBox="0 0 24 24" fill="none" xmlns="http://www.w3.org/2000/svg">
<path d="M20.1383 0.800796C19.7359 0.799533 19.3373 0.878159 18.9656 1.03212C18.5938 1.18607 18.2563 1.4123 17.9727 1.69767L7.43516 12.2352C7.348 12.3232 7.28225 12.4302 7.24297 12.5477L5.64297 17.3477C5.60289 17.4678 5.59191 17.5958 5.61096 17.7211C5.63 17.8463 5.67852 17.9652 5.75251 18.0681C5.82651 18.1709 5.92386 18.2547 6.03656 18.3125C6.14927 18.3704 6.2741 18.4006 6.40078 18.4008C6.48678 18.4008 6.57222 18.387 6.65391 18.3602L11.4539 16.7602C11.5717 16.7207 11.6787 16.6544 11.7664 16.5664L22.3039 6.02892C22.7323 5.60064 23.0241 5.05493 23.1423 4.46082C23.2605 3.86671 23.1998 3.25088 22.968 2.69124C22.7362 2.13159 22.3436 1.65327 21.8399 1.31677C21.3362 0.980265 20.744 0.800705 20.1383 0.800796ZM3.20078 2.4008C2.56426 2.4008 1.95381 2.65365 1.50372 3.10374C1.05364 3.55383 0.800781 4.16428 0.800781 4.8008V20.8008C0.800781 21.4373 1.05364 22.0478 1.50372 22.4979C1.95381 22.9479 2.56426 23.2008 3.20078 23.2008H17.6008C18.2373 23.2008 18.8478 22.9479 19.2978 22.4979C19.7479 22.0478 20.0008 21.4373 20.0008 20.8008V12.8008C20.0008 12.5886 19.9165 12.3851 19.7665 12.2351C19.6164 12.0851 19.413 12.0008 19.2008 12.0008C18.9886 12.0008 18.7851 12.0851 18.6351 12.2351C18.4851 12.3851 18.4008 12.5886 18.4008 12.8008V20.8008C18.4008 21.013 18.3165 21.2165 18.1665 21.3665C18.0164 21.5165 17.813 21.6008 17.6008 21.6008H3.20078C2.98861 21.6008 2.78512 21.5165 2.6351 21.3665C2.48507 21.2165 2.40078 21.013 2.40078 20.8008V4.8008C2.40078 4.58862 2.48507 4.38514 2.6351 4.23511C2.78512 4.08508 2.98861 4.0008 3.20078 4.0008H12.8008C13.013 4.0008 13.2164 3.91651 13.3665 3.76648C13.5165 3.61645 13.6008 3.41297 13.6008 3.2008C13.6008 2.98862 13.5165 2.78514 13.3665 2.63511C13.2164 2.48508 13.013 2.4008 12.8008 2.4008H3.20078ZM20.1602 2.40548C20.5434 2.41139 20.909 2.56742 21.1783 2.84002C21.4477 3.11263 21.5994 3.48005 21.6008 3.8633C21.6012 4.05544 21.5636 4.24577 21.4902 4.4233C21.4167 4.60083 21.3088 4.76206 21.1727 4.89767L10.7727 15.2977L7.66484 16.3367L8.69922 13.232L19.1039 2.83205C19.2425 2.69394 19.4074 2.58502 19.5888 2.51176C19.7702 2.43849 19.9645 2.40235 20.1602 2.40548Z" fill="black"/>
</svg>
