<svg width="345" height="15" viewBox="0 0 345 15" fill="none" xmlns="http://www.w3.org/2000/svg">
<path d="M499.16 1.77881L469.928 12.9179C468.094 13.6171 466.066 13.6171 464.231 12.9179L437.848 2.86434C436.013 2.16517 433.985 2.16517 432.151 2.86434L405.768 12.9179C403.933 13.6171 401.905 13.6171 400.07 12.9179L373.687 2.86434C371.852 2.16517 369.825 2.16517 367.99 2.86434L341.607 12.9179C339.772 13.6171 337.744 13.6171 335.909 12.9179L309.526 2.86434C307.692 2.16517 305.664 2.16517 303.829 2.86434L277.446 12.9179C275.611 13.6171 273.583 13.6171 271.748 12.9179L245.365 2.86434C243.531 2.16517 241.503 2.16517 239.668 2.86434L213.285 12.918C211.45 13.6171 209.422 13.6171 207.588 12.918L181.204 2.86433C179.37 2.16517 177.342 2.16517 175.507 2.86433L149.124 12.9179C147.289 13.6171 145.261 13.6171 143.427 12.9179L117.044 2.86434C115.209 2.16517 113.181 2.16517 111.346 2.86434L84.9631 12.9179C83.1283 13.6171 81.1005 13.6171 79.2657 12.9179L52.8826 2.86434C51.0479 2.16517 49.02 2.16517 47.1853 2.86434L20.8022 12.9179C18.9674 13.6171 16.9396 13.6171 15.1048 12.9179L-11.2782 2.86434C-13.113 2.16517 -15.1408 2.16517 -16.9756 2.86434L-43.3587 12.9179C-45.1934 13.6171 -47.2212 13.6171 -49.056 12.9179L-75.4391 2.86434C-77.2739 2.16517 -79.3017 2.16517 -81.1365 2.86434L-107.52 12.9179C-109.354 13.6171 -111.382 13.6171 -113.217 12.9179L-139.6 2.86434C-141.435 2.16517 -143.463 2.16517 -145.297 2.86434L-171.68 12.9179C-173.515 13.6171 -175.543 13.6171 -177.378 12.9179L-203.761 2.86434C-205.596 2.16517 -207.623 2.16517 -209.458 2.86434L-235.841 12.9179C-237.676 13.6171 -239.704 13.6171 -241.539 12.9179L-267.922 2.86434C-269.756 2.16517 -271.784 2.16517 -273.619 2.86434L-300.002 12.9179C-301.837 13.6171 -303.865 13.6171 -305.699 12.9179L-332.083 2.86434C-333.917 2.16517 -335.945 2.16517 -337.78 2.86434L-364.163 12.9179C-365.998 13.6171 -368.026 13.6171 -369.86 12.9179L-396.243 2.86434C-398.078 2.16517 -400.106 2.16517 -401.941 2.86434L-428.324 12.9179C-430.159 13.6171 -432.186 13.6171 -434.021 12.9179L-460.404 2.86434C-462.239 2.16517 -464.267 2.16517 -466.102 2.86434L-492.485 12.9179C-494.319 13.6171 -496.347 13.6171 -498.182 12.9179L-527.414 1.77881" stroke="#2AA893" stroke-width="3" stroke-miterlimit="10"/>
</svg>
