<svg width="16" height="13" viewBox="0 0 16 13" fill="none" xmlns="http://www.w3.org/2000/svg">
<path d="M9.75007 11.25C12.2353 11.25 14.25 9.23526 14.25 6.75C14.25 4.26472 12.2353 2.25 9.75 2.25C7.37299 2.25 5.42643 4.093 5.26134 6.428L6.96967 4.71967C7.26256 4.42678 7.73744 4.42678 8.03033 4.71967C8.32322 5.01256 8.32322 5.48744 8.03033 5.78033L5.03033 8.78033C4.88968 8.92098 4.69891 9 4.5 9C4.30109 9 4.11032 8.92098 3.96967 8.78033L0.96967 5.78033C0.676777 5.48744 0.676777 5.01256 0.96967 4.71967C1.26256 4.42678 1.73744 4.42678 2.03033 4.71967L3.75752 6.44686C3.91541 3.274 6.53795 0.75 9.75 0.75C13.0637 0.75 15.75 3.43629 15.75 6.75C15.75 10.0637 13.0637 12.75 9.75007 12.75C9.75009 12.75 9.75005 12.75 9.75007 12.75C9.33585 12.75 9 12.4142 9 12C9 11.5858 9.33585 11.25 9.75007 11.25C9.75009 11.25 9.75005 11.25 9.75007 11.25Z" fill="#664EFF"/>
</svg>
